<?xml version="1.0" encoding="utf-8"?>
<!-- Generator: Adobe Illustrator 16.0.2, SVG Export Plug-In . SVG Version: 6.00 Build 0)  -->
<!DOCTYPE svg PUBLIC "-//W3C//DTD SVG 1.1//EN" "http://www.w3.org/Graphics/SVG/1.1/DTD/svg11.dtd">
<svg version="1.1" id="Layer_1" xmlns="http://www.w3.org/2000/svg" xmlns:xlink="http://www.w3.org/1999/xlink" x="0px" y="0px"
	 width="166.036px" height="107.636px" viewBox="0 0 166.036 107.636" enable-background="new 0 0 166.036 107.636"
	 xml:space="preserve">
<g>
	<g>
		
			<linearGradient id="SVGID_1_" gradientUnits="userSpaceOnUse" x1="6.8018" y1="46.0845" x2="97.4893" y2="46.0845" gradientTransform="matrix(1 0 0 1 67.1484 0)">
			<stop  offset="0" style="stop-color:#D3FFCF"/>
			<stop  offset="1" style="stop-color:#1DFFF2"/>
		</linearGradient>
		<path fill-rule="evenodd" clip-rule="evenodd" fill="url(#SVGID_1_)" d="M116.688,0c-1.84,0-3.344,1.498-3.344,3.345
			c0,1.849,1.504,3.345,3.344,3.345c1.852,0,3.35-1.497,3.35-3.345C120.037,1.498,118.539,0,116.688,0z M75.809,88.455
			c-1.021,0-1.857,0.832-1.857,1.858c0,1.026,0.836,1.856,1.857,1.856c1.027,0,1.857-0.83,1.857-1.856
			C77.666,89.287,76.836,88.455,75.809,88.455z M163.523,72.842c-0.615,0-1.115,0.504-1.115,1.118c0,0.615,0.5,1.114,1.115,1.114
			s1.115-0.499,1.115-1.114C164.639,73.346,164.139,72.842,163.523,72.842z"/>
	</g>
</g>
<path fill="#4C4C4C" d="M53.814,26.276h-5.23c-0.105,0-0.197-0.089-0.197-0.198c0-0.107,0.092-0.196,0.197-0.196h5.23
	c0.104,0,0.197,0.088,0.197,0.196C54.012,26.188,53.918,26.276,53.814,26.276z M43.359,26.276h-5.23
	c-0.105,0-0.197-0.089-0.197-0.198c0-0.107,0.092-0.196,0.197-0.196h5.23c0.104,0,0.197,0.088,0.197,0.196
	C43.557,26.188,43.463,26.276,43.359,26.276z M32.898,26.276h-5.225c-0.111,0-0.197-0.089-0.197-0.198
	c0-0.107,0.086-0.196,0.197-0.196h5.225c0.109,0,0.197,0.088,0.197,0.196C33.096,26.188,33.008,26.276,32.898,26.276z"/>
<path fill="#4C4C4C" d="M43.027,38.746h-5.225c-0.109,0-0.197-0.087-0.197-0.196s0.088-0.196,0.197-0.196h5.225
	c0.111,0,0.197,0.087,0.197,0.196S43.139,38.746,43.027,38.746z M32.572,38.746h-5.225c-0.109,0-0.197-0.087-0.197-0.196
	s0.088-0.196,0.197-0.196h5.225c0.111,0,0.197,0.087,0.197,0.196S32.684,38.746,32.572,38.746z M22.117,38.746h-5.23
	c-0.104,0-0.191-0.087-0.191-0.196s0.088-0.196,0.191-0.196h5.23c0.105,0,0.197,0.087,0.197,0.196S22.223,38.746,22.117,38.746z"/>
<path fill="#4C4C4C" d="M47.369,32.441H0.197C0.088,32.441,0,32.353,0,32.244c0-0.107,0.088-0.196,0.197-0.196h47.172
	c0.105,0,0.199,0.088,0.199,0.196C47.568,32.353,47.475,32.441,47.369,32.441z"/>
<path fill="#4B4A4B" stroke="#FFFFFF" stroke-miterlimit="10" d="M97.926,67.81c3.715-4.571,5.787-9.833,6.207-15.677
	c0.455-6.355-1.24-12.201-4.727-17.525c-0.271-0.414-0.467-0.84-0.561-1.323c-0.402-2.083-1.547-3.512-3.639-4.088
	c-0.463-0.128-0.701-0.387-0.725-0.887c-0.057-1.184,0.105-2.207,0.941-3.214c1.484-1.784,2.701-3.769,2.852-6.204
	c0.164-1.27,0.322-2.54,0.359-3.824c0.016-0.546-0.07-0.8-0.717-0.785c-1.893,0.046-3.785,0.026-5.678,0.012
	c-0.756-0.006-1.217,0.31-1.363,1.059c-0.111,0.905,0.27,1.375,1.271,1.498c0.801,0.098,1.611,0.033,2.416,0.041
	c1.326,0.013,1.4,0.102,1.127,1.387c-1.197,5.637-6.451,9.833-12.416,9.882c-3.158,0.026-6.318,0.006-9.479,0.004
	c-0.943,0-1.859-0.153-2.736-0.52c-1.807-0.898-2.949-2.313-3.07-4.354c-0.107-1.831-0.01-3.671-0.031-5.506
	c-0.006-0.666,0.254-0.966,0.922-0.872c4.924,0.037,9.85,0.011,14.773,0.01c0.453,0,0.912-0.014,1.314-0.248
	c0.467-0.271,0.863-0.598,0.586-1.232c-0.129-0.933-0.732-1.157-1.584-1.154C77.682,14.308,71.393,14.3,65.104,14.3
	c-1.531,0-2.898,0.482-4.141,1.369c-1.732,1.238-2.533,3.013-2.941,5.022c0.002,2.611-0.008,5.222,0.014,7.833
	c0.004,0.516-0.082,0.758-0.672,0.919C55.49,29.955,54.342,31.256,54,33.15c-0.113,0.634-0.342,1.141-0.68,1.65
	c-3.969,6.001-5.361,12.579-4.393,19.684c0.123,0.9,0.496,1.531,1.531,1.483c0.934-0.171,1.246-0.619,1.092-1.736
	c-0.348-2.505-0.4-5.01-0.053-7.515c0.432-3.098,1.396-6.021,2.93-8.754c0.307-0.547,0.578-0.718,1.07-0.189
	c0.379,0.405,0.887,0.682,1.412,0.813c0.822,0.204,0.963,0.737,1.063,1.484c0.799,6,3.787,10.591,8.973,13.737
	c2.414,0.604,2.998,2.274,2.627,4.505c-0.004,0.029-0.008,0.04-0.01,0.045c0.004,0.001,0.006,0.01,0.01,0.051
	c0.061,0.699-0.234,0.996-0.953,0.968c-1.127-0.043-2.25,0.012-3.373,0.174c-3.635,0.525-6.086,2.611-7.721,5.776
	c-0.486,0.944-0.43,0.959-1.105,0.136c-0.846-1.028-1.441-2.215-2.178-3.311c-0.57-0.847-0.953-0.95-1.846-0.592
	c-0.756,0.57-0.762,1.234-0.34,2.029c5.516,10.366,18.154,16.21,29.629,13.747c4.783-1.026,9.043-3.063,12.732-6.264
	C94.918,70.638,97.031,68.91,97.926,67.81z M95.473,66.674c-0.754-2.141-1.949-3.846-3.725-5.123
	c-2.168-1.562-4.629-1.973-7.232-1.897c-1.678,0.048-1.682,0.009-1.68-1.646c0.002-1-0.266-2.113,0.09-2.967
	c0.342-0.825,1.586-0.923,2.393-1.422c5.346-3.309,8.35-8.065,8.912-14.337c0.037-0.413,0.131-0.667,0.57-0.728
	c0.996-0.139,1.836-0.61,2.508-1.333c0.393-0.424,0.531-0.237,0.742,0.132c2.703,4.709,3.924,9.745,3.408,15.179
	c-0.463,4.86-2.186,9.22-5.131,13.104C96.078,65.966,95.801,66.276,95.473,66.674z"/>
<path fill-rule="evenodd" clip-rule="evenodd" fill="#39CC74" d="M90.877,15.354c0.059,0.929,0.602,1.28,1.479,1.27
	c0.967-0.012,1.939,0.058,2.902-0.021c0.869-0.07,1.039,0.258,0.881,1.032c-0.766,3.75-2.686,6.716-5.93,8.783
	c-2.057,1.31-4.33,1.963-6.756,1.994c-3.322,0.042-6.646,0.02-9.969,0.005c-0.863-0.004-1.725-0.099-2.492-0.562
	c-1.93-1.214-2.391-3.171-2.559-5.228c-0.141-1.725-0.047-3.461-0.037-5.192c0.002-0.292,0.055-0.577,0.295-0.786
	c5.063-0.01,10.125-0.026,15.189-0.023c0.863,0,1.539-0.187,1.674-1.182c0.506-0.006,1.014-0.011,1.521-0.017
	c0.16,0.059,0.248,0.191,0.344,0.322c0.619,0.84,1.16,0.854,1.828,0.049c0.104-0.124,0.186-0.264,0.338-0.334
	C90.018,15.428,90.447,15.391,90.877,15.354z"/>
<path fill-rule="evenodd" clip-rule="evenodd" fill="#4B4A4B" d="M89.586,15.465c-0.154,0.658-0.424,1.2-1.219,1.222
	c-0.861,0.023-1.102-0.59-1.291-1.258c0.236-0.583,0.576-1.085,1.271-1.079C89.049,14.357,89.369,14.876,89.586,15.465z"/>
<path fill-rule="evenodd" clip-rule="evenodd" fill="#4B4A4B" d="M50.678,57.563c0.629-0.105,1.162,0.05,1.443,0.66
	c0.301,0.656-0.004,1.165-0.502,1.591c-0.701,0.117-1.355,0.083-1.656-0.701C49.682,58.378,50.098,57.923,50.678,57.563z"/>
<path fill-rule="evenodd" clip-rule="evenodd" fill="#FFFFFF" d="M66.42,26.82c1.936,3.011,4.742,4.031,8.133,3.914
	c3.385-0.117,6.773,0.114,10.158-0.119c2.391-0.165,4.58-0.943,6.625-2.169c0.188-0.112,0.379-0.217,0.703-0.402
	c0,0.382,0.004,0.655-0.002,0.927c-0.061,3.482,0.127,6.967-0.117,10.449c-0.463,6.641-5.803,12.701-12.346,13.997
	c-8.955,1.774-17.232-3.748-18.973-12.701c-0.508-2.615-0.201-5.277-0.258-7.917c-0.014-0.644-0.172-1.384,0.088-1.905
	c0.256-0.512,1.1-0.354,1.662-0.57C63.893,29.63,65.328,28.488,66.42,26.82z"/>
<path fill-rule="evenodd" clip-rule="evenodd" fill="#FFFFFF" d="M65.34,62.168c0.387-0.201,0.805-0.208,1.225-0.208
	c6.453,0,12.908-0.018,19.361,0.007c3.559,0.013,6.537,2.392,7.426,5.792c0.182,0.688,0.037,1.119-0.512,1.58
	c-5.02,4.212-10.795,6.337-17.344,6.14c-5.316-0.16-10.158-1.826-14.408-5.09c-0.268-0.367-0.236-0.794-0.225-1.21
	c0.078-2.694,1.324-4.79,3.354-6.471C64.539,62.442,64.939,62.293,65.34,62.168z"/>
<path fill-rule="evenodd" clip-rule="evenodd" fill="#39CC74" d="M63.436,16.957c0.205-0.078,0.404-0.174,0.615-0.23
	c1.068-0.28,1.168-0.205,1.17,0.859c0.002,1.674,0.01,3.348-0.002,5.021c-0.018,2.517-1.355,4.454-3.723,5.415
	c-0.338-0.334-0.277-0.769-0.279-1.177c-0.01-1.825-0.01-3.649-0.002-5.474c0.006-1.398,0.477-2.629,1.35-3.712
	C62.842,17.411,63.189,17.247,63.436,16.957z"/>
<path fill-rule="evenodd" clip-rule="evenodd" fill="#FCFCFD" d="M72.166,55.64c2.699,0.535,5.318,0.604,7.928-0.005
	c0.471-0.11,0.469,0.141,0.469,0.457c-0.002,0.998-0.018,1.996,0.006,2.994c0.012,0.418-0.131,0.551-0.549,0.548
	c-2.445-0.016-4.893-0.012-7.34-0.003c-0.35,0.001-0.529-0.074-0.521-0.477C72.18,58,72.166,56.845,72.166,55.64z"/>
<path fill-rule="evenodd" clip-rule="evenodd" fill="#FFFDFD" d="M65.34,62.168c-2.934,1.957-4.432,4.654-4.252,8.221
	c-0.109-0.064-0.229-0.117-0.328-0.195c-1.768-1.387-1.893-1.721-0.941-3.756C60.916,64.091,62.672,62.522,65.34,62.168z"/>
<path fill-rule="evenodd" clip-rule="evenodd" fill="#FCFDFF" d="M62.863,17.601c-0.951,1.284-1.438,2.693-1.385,4.322
	c0.066,2.031,0.016,4.065,0.016,6.099c-0.324,0.238-0.713,0.24-1.139,0.366c0-2.519-0.09-4.967,0.033-7.405
	c0.078-1.53,0.83-2.819,2.248-3.603C62.85,17.313,62.9,17.412,62.863,17.601z"/>
<path fill-rule="evenodd" clip-rule="evenodd" fill="#FFFFFF" d="M68.691,16.651c-0.002,1.957-0.045,3.916,0.01,5.872
	c0.057,2.064,0.805,3.867,2.291,5.333c-2.064-0.866-3.164-2.463-3.289-4.65c-0.107-1.855,0.02-3.723-0.057-5.582
	C67.611,16.764,67.846,16.445,68.691,16.651z"/>
<path fill-rule="evenodd" clip-rule="evenodd" fill="#F7F5FA" d="M93.898,33.912c0-0.546,0.027-1.094-0.008-1.637
	c-0.037-0.585,0.152-0.74,0.723-0.561c0.973,0.305,1.73,1.316,1.676,2.328c-0.055,1.023-0.813,1.932-1.754,2.168
	c-0.449,0.113-0.664,0.052-0.643-0.468C93.92,35.133,93.898,34.522,93.898,33.912z"/>
<path fill-rule="evenodd" clip-rule="evenodd" fill="#FCFCFD" d="M58.607,34.062c0,0.449,0.002,0.897,0,1.346
	c-0.004,0.995-0.17,1.085-1.088,0.596c-0.855-0.457-1.348-1.372-1.236-2.306c0.109-0.942,0.807-1.73,1.705-1.99
	c0.43-0.125,0.658-0.112,0.627,0.432C58.58,32.778,58.607,33.42,58.607,34.062z"/>
<path fill-rule="evenodd" clip-rule="evenodd" fill="#D8E3EC" d="M62.863,17.601c-0.074-0.074-0.15-0.147-0.227-0.22
	c0.197-0.269,0.49-0.363,0.799-0.424C63.342,17.257,63.119,17.443,62.863,17.601z"/>
<path fill-rule="evenodd" clip-rule="evenodd" fill="#4B4A4B" d="M76.404,48.175c-2.66-0.131-4.709-1.256-6.088-3.532
	c-0.416-0.685-0.504-1.344,0.232-1.865c0.631-0.447,1.26-0.197,1.803,0.667c1.982,3.145,6.039,3.148,8.045,0.008
	c0.568-0.89,1.145-1.104,1.805-0.672c0.637,0.417,0.717,1.08,0.188,1.945C81.016,46.966,78.963,48.036,76.404,48.175z"/>
<path fill-rule="evenodd" clip-rule="evenodd" fill="#4B4A4B" d="M82.775,37.578c-0.002-1.167,0.828-2.013,1.992-2.03
	c1.191-0.018,2.107,0.872,2.102,2.04c-0.004,1.104-0.916,2.041-2.014,2.072C83.734,39.691,82.775,38.731,82.775,37.578z"/>
<path fill-rule="evenodd" clip-rule="evenodd" fill="#4B4A4B" d="M65.715,37.585c-0.002-1.172,0.822-2.018,1.982-2.038
	c1.176-0.02,2.123,0.887,2.125,2.033c0,1.123-1.002,2.106-2.115,2.078C66.605,39.63,65.715,38.705,65.715,37.585z"/>
<path fill-rule="evenodd" clip-rule="evenodd" fill="#4B4A4B" d="M82.691,66.569c1.16,0,2.322,0.003,3.482-0.002
	c0.719-0.003,1.207,0.323,1.256,1.047c0.055,0.789-0.467,1.222-1.189,1.233c-2.385,0.038-4.771,0.032-7.158-0.006
	c-0.682-0.011-1.172-0.396-1.148-1.161c0.023-0.806,0.514-1.119,1.275-1.114C80.369,66.574,81.529,66.569,82.691,66.569z"/>
<path fill="#4B4A4B" stroke="#FFFFFF" stroke-miterlimit="10" d="M157.244,67.81c3.715-4.571,5.787-9.833,6.207-15.677
	c0.455-6.355-1.24-12.201-4.727-17.525c-0.271-0.414-0.467-0.84-0.561-1.323c-0.402-2.083-1.547-3.512-3.639-4.088
	c-0.463-0.128-0.701-0.387-0.725-0.887c-0.057-1.184,0.105-2.207,0.941-3.214c1.484-1.784,2.701-3.769,2.852-6.204
	c0.164-1.27,0.322-2.54,0.359-3.824c0.016-0.546-0.07-0.8-0.717-0.785c-1.893,0.046-3.785,0.026-5.678,0.012
	c-0.756-0.006-1.217,0.31-1.363,1.059c-0.111,0.905,0.27,1.375,1.271,1.498c0.801,0.098,1.611,0.033,2.416,0.041
	c1.326,0.013,1.4,0.102,1.127,1.387c-1.197,5.637-6.451,9.833-12.416,9.882c-3.158,0.026-6.318,0.006-9.479,0.004
	c-0.943,0-1.859-0.153-2.736-0.52c-1.807-0.898-2.949-2.313-3.07-4.354c-0.107-1.831-0.01-3.671-0.031-5.506
	c-0.006-0.666,0.254-0.966,0.922-0.872c4.924,0.037,9.85,0.011,14.773,0.01c0.453,0,0.912-0.014,1.314-0.248
	c0.467-0.271,0.863-0.598,0.586-1.232c-0.129-0.933-0.732-1.157-1.584-1.154C137,14.308,130.711,14.3,124.422,14.3
	c-1.531,0-2.898,0.482-4.141,1.369c-1.732,1.238-2.533,3.013-2.941,5.022c0.002,2.611-0.008,5.222,0.014,7.833
	c0.004,0.516-0.082,0.758-0.672,0.919c-1.873,0.512-3.021,1.813-3.363,3.707c-0.113,0.634-0.342,1.141-0.68,1.65
	c-3.969,6.001-5.361,12.579-4.393,19.684c0.123,0.9,0.496,1.531,1.531,1.483c0.934-0.171,1.246-0.619,1.092-1.736
	c-0.348-2.505-0.4-5.01-0.053-7.515c0.432-3.098,1.396-6.021,2.93-8.754c0.307-0.547,0.578-0.718,1.07-0.189
	c0.379,0.405,0.887,0.682,1.412,0.813c0.822,0.204,0.963,0.737,1.063,1.484c0.799,6,3.787,10.591,8.973,13.737
	c2.414,0.604,2.998,2.274,2.627,4.505c-0.004,0.029-0.008,0.04-0.01,0.045c0.004,0.001,0.006,0.01,0.01,0.051
	c0.061,0.699-0.234,0.996-0.953,0.968c-1.127-0.043-2.25,0.012-3.373,0.174c-3.635,0.525-6.086,2.611-7.721,5.776
	c-0.486,0.944-0.43,0.959-1.105,0.136c-0.846-1.028-1.441-2.215-2.178-3.311c-0.57-0.847-0.953-0.95-1.846-0.592
	c-0.756,0.57-0.762,1.234-0.34,2.029c5.516,10.366,18.154,16.21,29.629,13.747c4.783-1.026,9.043-3.063,12.732-6.264
	C154.236,70.638,156.35,68.91,157.244,67.81z M154.791,66.674c-0.754-2.141-1.949-3.846-3.725-5.123
	c-2.168-1.562-4.629-1.973-7.232-1.897c-1.678,0.048-1.682,0.009-1.68-1.646c0.002-1-0.266-2.113,0.09-2.967
	c0.342-0.825,1.586-0.923,2.393-1.422c5.346-3.309,8.35-8.065,8.912-14.337c0.037-0.413,0.131-0.667,0.57-0.728
	c0.996-0.139,1.836-0.61,2.508-1.333c0.393-0.424,0.531-0.237,0.742,0.132c2.703,4.709,3.924,9.745,3.408,15.179
	c-0.463,4.86-2.186,9.22-5.131,13.104C155.396,65.966,155.119,66.276,154.791,66.674z"/>
<path fill-rule="evenodd" clip-rule="evenodd" fill="#39CC74" d="M150.195,15.354c0.059,0.929,0.602,1.28,1.479,1.27
	c0.967-0.012,1.939,0.058,2.902-0.021c0.869-0.07,1.039,0.258,0.881,1.032c-0.766,3.75-2.686,6.716-5.93,8.783
	c-2.057,1.31-4.33,1.963-6.756,1.994c-3.322,0.042-6.646,0.02-9.969,0.005c-0.863-0.004-1.725-0.099-2.492-0.562
	c-1.93-1.214-2.391-3.171-2.559-5.228c-0.141-1.725-0.047-3.461-0.037-5.192c0.002-0.292,0.055-0.577,0.295-0.786
	c5.063-0.01,10.125-0.026,15.189-0.023c0.863,0,1.539-0.187,1.674-1.182c0.506-0.006,1.014-0.011,1.521-0.017
	c0.16,0.059,0.248,0.191,0.344,0.322c0.619,0.84,1.16,0.854,1.828,0.049c0.104-0.124,0.186-0.264,0.338-0.334
	C149.336,15.428,149.766,15.391,150.195,15.354z"/>
<path fill-rule="evenodd" clip-rule="evenodd" fill="#4B4A4B" d="M148.904,15.465c-0.154,0.658-0.424,1.2-1.219,1.222
	c-0.861,0.023-1.102-0.59-1.291-1.258c0.236-0.583,0.576-1.085,1.271-1.079C148.367,14.357,148.688,14.876,148.904,15.465z"/>
<path fill-rule="evenodd" clip-rule="evenodd" fill="#4B4A4B" d="M109.996,57.563c0.629-0.105,1.162,0.05,1.443,0.66
	c0.301,0.656-0.004,1.165-0.502,1.591c-0.701,0.117-1.355,0.083-1.656-0.701C109,58.378,109.416,57.923,109.996,57.563z"/>
<path fill-rule="evenodd" clip-rule="evenodd" fill="#FFFFFF" d="M125.738,26.82c1.936,3.011,4.742,4.031,8.133,3.914
	c3.385-0.117,6.773,0.114,10.158-0.119c2.391-0.165,4.58-0.943,6.625-2.169c0.188-0.112,0.379-0.217,0.703-0.402
	c0,0.382,0.004,0.655-0.002,0.927c-0.061,3.482,0.127,6.967-0.117,10.449c-0.463,6.641-5.803,12.701-12.346,13.997
	c-8.955,1.774-17.232-3.748-18.973-12.701c-0.508-2.615-0.201-5.277-0.258-7.917c-0.014-0.644-0.172-1.384,0.088-1.905
	c0.256-0.512,1.1-0.354,1.662-0.57C123.211,29.63,124.646,28.488,125.738,26.82z"/>
<path fill-rule="evenodd" clip-rule="evenodd" fill="#FFFFFF" d="M124.658,62.168c0.387-0.201,0.805-0.208,1.225-0.208
	c6.453,0,12.908-0.018,19.361,0.007c3.559,0.013,6.537,2.392,7.426,5.792c0.182,0.688,0.037,1.119-0.512,1.58
	c-5.02,4.212-10.795,6.337-17.344,6.14c-5.316-0.16-10.158-1.826-14.408-5.09c-0.268-0.367-0.236-0.794-0.225-1.21
	c0.078-2.694,1.324-4.79,3.354-6.471C123.857,62.442,124.258,62.293,124.658,62.168z"/>
<path fill-rule="evenodd" clip-rule="evenodd" fill="#39CC74" d="M122.754,16.957c0.205-0.078,0.404-0.174,0.615-0.23
	c1.068-0.28,1.168-0.205,1.17,0.859c0.002,1.674,0.01,3.348-0.002,5.021c-0.018,2.517-1.355,4.454-3.723,5.415
	c-0.338-0.334-0.277-0.769-0.279-1.177c-0.01-1.825-0.01-3.649-0.002-5.474c0.006-1.398,0.477-2.629,1.35-3.712
	C122.16,17.411,122.508,17.247,122.754,16.957z"/>
<path fill-rule="evenodd" clip-rule="evenodd" fill="#FCFCFD" d="M131.484,55.64c2.699,0.535,5.318,0.604,7.928-0.005
	c0.471-0.11,0.469,0.141,0.469,0.457c-0.002,0.998-0.018,1.996,0.006,2.994c0.012,0.418-0.131,0.551-0.549,0.548
	c-2.445-0.016-4.893-0.012-7.34-0.003c-0.35,0.001-0.529-0.074-0.521-0.477C131.498,58,131.484,56.845,131.484,55.64z"/>
<path fill-rule="evenodd" clip-rule="evenodd" fill="#FFFDFD" d="M124.658,62.168c-2.934,1.957-4.432,4.654-4.252,8.221
	c-0.109-0.064-0.229-0.117-0.328-0.195c-1.768-1.387-1.893-1.721-0.941-3.756C120.234,64.091,121.99,62.522,124.658,62.168z"/>
<path fill-rule="evenodd" clip-rule="evenodd" fill="#FCFDFF" d="M122.182,17.601c-0.951,1.284-1.438,2.693-1.385,4.322
	c0.066,2.031,0.016,4.065,0.016,6.099c-0.324,0.238-0.713,0.24-1.139,0.366c0-2.519-0.09-4.967,0.033-7.405
	c0.078-1.53,0.83-2.819,2.248-3.603C122.168,17.313,122.219,17.412,122.182,17.601z"/>
<path fill-rule="evenodd" clip-rule="evenodd" fill="#FFFFFF" d="M128.01,16.651c-0.002,1.957-0.045,3.916,0.01,5.872
	c0.057,2.064,0.805,3.867,2.291,5.333c-2.064-0.866-3.164-2.463-3.289-4.65c-0.107-1.855,0.02-3.723-0.057-5.582
	C126.93,16.764,127.164,16.445,128.01,16.651z"/>
<path fill-rule="evenodd" clip-rule="evenodd" fill="#F7F5FA" d="M153.217,33.912c0-0.546,0.027-1.094-0.008-1.637
	c-0.037-0.585,0.152-0.74,0.723-0.561c0.973,0.305,1.73,1.316,1.676,2.328c-0.055,1.023-0.813,1.932-1.754,2.168
	c-0.449,0.113-0.664,0.052-0.643-0.468C153.238,35.133,153.217,34.522,153.217,33.912z"/>
<path fill-rule="evenodd" clip-rule="evenodd" fill="#FCFCFD" d="M117.926,34.062c0,0.449,0.002,0.897,0,1.346
	c-0.004,0.995-0.17,1.085-1.088,0.596c-0.855-0.457-1.348-1.372-1.236-2.306c0.109-0.942,0.807-1.73,1.705-1.99
	c0.43-0.125,0.658-0.112,0.627,0.432C117.898,32.778,117.926,33.42,117.926,34.062z"/>
<path fill-rule="evenodd" clip-rule="evenodd" fill="#D8E3EC" d="M122.182,17.601c-0.074-0.074-0.15-0.147-0.227-0.22
	c0.197-0.269,0.49-0.363,0.799-0.424C122.66,17.257,122.438,17.443,122.182,17.601z"/>
<path fill-rule="evenodd" clip-rule="evenodd" fill="#4B4A4B" d="M135.723,48.175c-2.66-0.131-4.709-1.256-6.088-3.532
	c-0.416-0.685-0.504-1.344,0.232-1.865c0.631-0.447,1.26-0.197,1.803,0.667c1.982,3.145,6.039,3.148,8.045,0.008
	c0.568-0.89,1.145-1.104,1.805-0.672c0.637,0.417,0.717,1.08,0.188,1.945C140.334,46.966,138.281,48.036,135.723,48.175z"/>
<path fill-rule="evenodd" clip-rule="evenodd" fill="#4B4A4B" d="M142.094,37.578c-0.002-1.167,0.828-2.013,1.992-2.03
	c1.191-0.018,2.107,0.872,2.102,2.04c-0.004,1.104-0.916,2.041-2.014,2.072C143.053,39.691,142.094,38.731,142.094,37.578z"/>
<path fill-rule="evenodd" clip-rule="evenodd" fill="#4B4A4B" d="M125.033,37.585c-0.002-1.172,0.822-2.018,1.982-2.038
	c1.176-0.02,2.123,0.887,2.125,2.033c0,1.123-1.002,2.106-2.115,2.078C125.924,39.63,125.033,38.705,125.033,37.585z"/>
<path fill-rule="evenodd" clip-rule="evenodd" fill="#4B4A4B" d="M142.01,66.569c1.16,0,2.322,0.003,3.482-0.002
	c0.719-0.003,1.207,0.323,1.256,1.047c0.055,0.789-0.467,1.222-1.189,1.233c-2.385,0.038-4.771,0.032-7.158-0.006
	c-0.682-0.011-1.172-0.396-1.148-1.161c0.023-0.806,0.514-1.119,1.275-1.114C139.688,66.574,140.848,66.569,142.01,66.569z"/>
<path fill-rule="evenodd" clip-rule="evenodd" fill="#4B4A4B" stroke="#FFFFFF" stroke-miterlimit="10" d="M89.904,71.694
	c-1.035,0.048-1.408-0.583-1.531-1.483c-0.971-7.105,0.424-13.683,4.393-19.684c0.336-0.51,0.564-1.016,0.68-1.65
	c0.342-1.894,1.49-3.195,3.361-3.707c0.59-0.162,0.676-0.403,0.672-0.919c-0.021-2.61-0.012-5.222-0.014-7.833
	c0.41-2.009,1.209-3.785,2.943-5.022c1.24-0.887,2.607-1.369,4.139-1.369c6.289,0,12.578,0.008,18.867-0.008
	c0.854-0.002,1.455,0.221,1.584,1.154c0.279,0.635-0.119,0.962-0.586,1.232c-0.402,0.234-0.861,0.248-1.314,0.248
	c-4.924,0-9.848,0.026-14.771-0.01c-0.67-0.094-0.93,0.206-0.922,0.872c0.02,1.835-0.076,3.676,0.031,5.506
	c0.119,2.041,1.262,3.455,3.07,4.354c0.875,0.367,1.791,0.52,2.736,0.52c3.158,0.001,6.318,0.022,9.479-0.004
	c5.963-0.05,11.219-4.246,12.416-9.882c0.273-1.285,0.197-1.374-1.129-1.387c-0.805-0.008-1.613,0.057-2.414-0.041
	c-1.004-0.123-1.383-0.593-1.273-1.498c0.148-0.749,0.609-1.065,1.363-1.059c1.893,0.015,3.787,0.035,5.678-0.012
	c0.646-0.016,0.732,0.239,0.717,0.785c-0.035,1.284-0.193,2.554-0.359,3.824c-0.148,2.435-1.367,4.419-2.85,6.204
	c-0.838,1.007-1,2.03-0.943,3.214c0.023,0.5,0.262,0.759,0.725,0.887c2.094,0.576,3.236,2.005,3.639,4.088
	c0.094,0.483,0.289,0.909,0.561,1.323c3.486,5.325,5.184,11.17,4.727,17.525c-0.42,5.844-2.49,11.105-6.207,15.677
	c-0.895,1.1-0.914,1.107,0.094,2.117c0.912,0.913,1.832,1.818,2.734,2.74c0.379,0.387,0.773,0.516,1.305,0.345
	c2.252-0.728,4.131-0.057,5.689,1.622c0.738,0.795,1.703,1.396,2.158,2.443c1.947,1.971,3.914,3.92,5.834,5.917
	c2.545,2.646,1.557,6.809-1.867,7.863c-1.854,0.571-3.492,0.097-4.871-1.263c-1.951-1.921-3.896-3.847-5.844-5.771
	c-0.852-0.875-1.697-1.757-2.559-2.623c-1.57-1.58-1.99-3.405-1.137-5.47c0.17-0.413,0.074-0.618-0.209-0.895
	c-1.244-1.217-2.484-2.441-3.689-3.697c-0.406-0.423-0.646-0.5-1.145-0.067c-3.691,3.201-7.951,5.237-12.734,6.264
	c-11.475,2.463-24.113-3.38-29.627-13.747c-0.424-0.795-0.416-1.459,0.338-2.029c0.893-0.358,1.277-0.255,1.846,0.592
	c0.738,1.096,1.334,2.283,2.178,3.311c0.676,0.823,0.619,0.808,1.107-0.136c1.635-3.165,4.086-5.251,7.719-5.776
	c1.125-0.162,2.246-0.217,3.373-0.174c0.721,0.028,1.014-0.269,0.953-0.968c-0.01-0.128-0.02,0.03,0.002-0.096
	c0.369-2.23-0.213-3.901-2.629-4.505c-5.186-3.146-8.172-7.737-8.971-13.737c-0.1-0.748-0.24-1.281-1.063-1.484
	c-0.525-0.131-1.035-0.407-1.412-0.813c-0.494-0.529-0.766-0.358-1.072,0.189c-1.533,2.733-2.498,5.656-2.928,8.754
	c-0.348,2.505-0.297,5.01,0.051,7.515C91.148,71.075,90.838,71.523,89.904,71.694z"/>
<path fill-rule="evenodd" clip-rule="evenodd" fill="#39CC74" d="M130.32,31.082c0.059,0.929,0.604,1.28,1.479,1.27
	c0.969-0.012,1.941,0.058,2.902-0.021c0.869-0.07,1.039,0.258,0.881,1.032c-0.764,3.75-2.684,6.716-5.928,8.783
	c-2.057,1.31-4.33,1.963-6.756,1.994c-3.322,0.042-6.646,0.02-9.971,0.005c-0.863-0.004-1.723-0.099-2.492-0.562
	c-1.93-1.214-2.391-3.171-2.559-5.228c-0.141-1.725-0.045-3.461-0.035-5.192c0.002-0.292,0.055-0.577,0.293-0.786
	c5.063-0.01,10.127-0.026,15.189-0.023c0.863,0,1.541-0.187,1.674-1.182c0.508-0.006,1.014-0.011,1.521-0.017
	c0.16,0.059,0.248,0.191,0.344,0.322c0.619,0.84,1.16,0.854,1.83,0.049c0.102-0.124,0.184-0.264,0.338-0.334
	C129.461,31.155,129.891,31.118,130.32,31.082z"/>
<path fill-rule="evenodd" clip-rule="evenodd" fill="#4B4A4B" d="M129.031,31.192c-0.156,0.658-0.424,1.2-1.219,1.222
	c-0.863,0.023-1.104-0.59-1.293-1.258c0.236-0.583,0.578-1.085,1.273-1.079C128.494,30.084,128.813,30.603,129.031,31.192z"/>
<path fill-rule="evenodd" clip-rule="evenodd" fill="#FFFFFF" d="M89.904,71.694c0.742-0.347,0.967-0.876,0.844-1.718
	c-0.92-6.206,0.209-12.009,3.521-17.428c0.828,0.848,1.697,1.522,2.865,1.738c0.623,0.115,0.426,0.731,0.465,1.131
	c0.314,3.243,1.438,6.173,3.33,8.815c1.98,2.763,4.531,4.818,7.674,6.112c0.525,0.216,0.738,0.474,0.709,1.055
	c-0.053,1.03-0.061,2.066,0,3.095c0.041,0.702-0.129,0.948-0.883,0.917c-1.479-0.063-2.973-0.124-4.428,0.229
	c-3.52,0.851-5.908,2.983-7.141,6.396c-0.033,0.09-0.064,0.182-0.109,0.265c-0.031,0.055-0.086,0.095-0.156,0.169
	c-1.143-1.275-2.123-2.665-2.918-4.169c-0.418-0.787-0.934-1.201-1.838-1.015c-0.467-0.488-0.613-1.12-0.775-1.744
	c-0.01-0.03-0.035-0.065-0.027-0.089c0.516-1.461,0.471-1.57-0.916-2.162C90.049,72.758,89.977,72.226,89.904,71.694z"/>
<path fill-rule="evenodd" clip-rule="evenodd" fill="#4B4A4B" d="M90.121,73.291c0.631-0.105,1.164,0.05,1.443,0.66
	c0.303,0.656-0.004,1.165-0.5,1.591c-0.701,0.117-1.357,0.083-1.656-0.701C89.127,74.105,89.541,73.65,90.121,73.291z"/>
<path fill-rule="evenodd" clip-rule="evenodd" fill="#FFFFFF" d="M105.865,42.547c1.936,3.011,4.742,4.031,8.133,3.914
	c3.383-0.117,6.773,0.114,10.156-0.119c2.391-0.165,4.582-0.943,6.625-2.169c0.188-0.112,0.379-0.217,0.703-0.402
	c0,0.382,0.004,0.655,0,0.927c-0.063,3.482,0.125,6.967-0.117,10.449c-0.465,6.641-5.803,12.701-12.348,13.997
	c-8.955,1.774-17.232-3.748-18.973-12.701c-0.508-2.615-0.199-5.277-0.258-7.917c-0.014-0.644-0.17-1.384,0.09-1.905
	c0.256-0.512,1.098-0.354,1.66-0.57C103.336,45.357,104.773,44.215,105.865,42.547z"/>
<path fill-rule="evenodd" clip-rule="evenodd" fill="#FFFFFF" d="M104.783,77.896c0.387-0.201,0.805-0.208,1.227-0.208
	c6.453,0,12.906-0.018,19.359,0.007c3.561,0.013,6.539,2.392,7.428,5.792c0.18,0.688,0.037,1.119-0.512,1.58
	c-5.021,4.212-10.797,6.337-17.344,6.14c-5.316-0.16-10.16-1.826-14.408-5.09c-0.27-0.367-0.238-0.794-0.227-1.21
	c0.08-2.694,1.324-4.79,3.355-6.471C103.982,78.169,104.383,78.021,104.783,77.896z"/>
<path fill-rule="evenodd" clip-rule="evenodd" fill="#FFFFFF" d="M134.918,82.401c-0.754-2.141-1.951-3.846-3.725-5.123
	c-2.17-1.562-4.629-1.973-7.234-1.897c-1.678,0.048-1.68,0.009-1.678-1.646c0-1-0.268-2.113,0.088-2.967
	c0.344-0.825,1.588-0.923,2.395-1.422c5.346-3.309,8.35-8.065,8.912-14.337c0.035-0.413,0.131-0.667,0.568-0.728
	c0.996-0.139,1.838-0.61,2.508-1.333c0.395-0.424,0.531-0.237,0.744,0.132c2.703,4.709,3.924,9.745,3.406,15.179
	c-0.461,4.86-2.184,9.22-5.131,13.104C135.521,81.693,135.246,82.003,134.918,82.401z"/>
<path fill-rule="evenodd" clip-rule="evenodd" fill="#39CC74" d="M143.785,91.189c0.604,0.038,0.979,0.462,1.361,0.844
	c2.744,2.729,5.49,5.457,8.211,8.208c1.451,1.469,1.154,3.173-0.66,4.075c-0.305-0.125-0.529-0.355-0.758-0.583
	c-2.588-2.594-5.193-5.171-7.766-7.781c-1.092-1.108-1.557-2.421-1.018-3.965C143.271,91.655,143.393,91.31,143.785,91.189z"/>
<path fill-rule="evenodd" clip-rule="evenodd" fill="#39CC74" d="M102.879,32.684c0.205-0.078,0.404-0.174,0.615-0.23
	c1.068-0.28,1.17-0.205,1.17,0.859c0.002,1.674,0.01,3.348-0.002,5.021c-0.016,2.517-1.354,4.454-3.723,5.415
	c-0.338-0.334-0.275-0.769-0.277-1.177c-0.012-1.825-0.012-3.649-0.004-5.474c0.008-1.398,0.479-2.629,1.35-3.712
	C102.287,33.138,102.633,32.974,102.879,32.684z"/>
<path fill-rule="evenodd" clip-rule="evenodd" fill="#FCFCFD" d="M111.609,71.367c2.699,0.535,5.318,0.604,7.928-0.005
	c0.473-0.11,0.471,0.141,0.469,0.457c0,0.998-0.016,1.996,0.008,2.994c0.01,0.418-0.131,0.551-0.549,0.548
	c-2.447-0.016-4.895-0.012-7.342-0.003c-0.348,0.001-0.527-0.074-0.52-0.477C111.623,73.727,111.609,72.572,111.609,71.367z"/>
<path fill-rule="evenodd" clip-rule="evenodd" fill="#FFFFFF" d="M143.785,91.189c-0.992,1.854-0.801,3.254,0.66,4.718
	c2.529,2.533,5.063,5.061,7.59,7.593c0.248,0.248,0.545,0.461,0.662,0.816c-1.025,0.304-1.885,0.041-2.635-0.715
	c-2.797-2.812-5.611-5.604-8.404-8.417c-0.922-0.929-1.08-2.01-0.5-2.978C141.725,91.266,142.672,90.899,143.785,91.189z"/>
<path fill-rule="evenodd" clip-rule="evenodd" fill="#FFFDFD" d="M104.783,77.896c-2.932,1.957-4.432,4.654-4.25,8.221
	c-0.111-0.064-0.23-0.117-0.33-0.195c-1.766-1.387-1.891-1.721-0.939-3.756C100.361,79.818,102.117,78.249,104.783,77.896z"/>
<path fill-rule="evenodd" clip-rule="evenodd" fill="#FCFDFF" d="M102.309,33.328c-0.953,1.284-1.438,2.693-1.385,4.322
	c0.064,2.031,0.016,4.065,0.016,6.099c-0.326,0.238-0.713,0.24-1.139,0.366c0-2.519-0.092-4.967,0.031-7.405
	c0.078-1.53,0.83-2.819,2.248-3.603C102.293,33.041,102.346,33.139,102.309,33.328z"/>
<path fill-rule="evenodd" clip-rule="evenodd" fill="#FFFFFF" d="M108.135,32.378c0,1.957-0.043,3.916,0.01,5.872
	c0.057,2.064,0.805,3.867,2.291,5.333c-2.063-0.866-3.162-2.463-3.289-4.65c-0.107-1.855,0.02-3.723-0.057-5.582
	C107.055,32.491,107.289,32.172,108.135,32.378z"/>
<path fill-rule="evenodd" clip-rule="evenodd" fill="#F7F5FA" d="M133.344,49.639c0-0.546,0.027-1.094-0.008-1.637
	c-0.039-0.585,0.15-0.74,0.723-0.561c0.973,0.305,1.729,1.316,1.676,2.328c-0.055,1.023-0.814,1.932-1.754,2.168
	c-0.451,0.113-0.666,0.052-0.643-0.468C133.363,50.86,133.344,50.249,133.344,49.639z"/>
<path fill-rule="evenodd" clip-rule="evenodd" fill="#FCFCFD" d="M98.053,49.789c0,0.449,0,0.897-0.002,1.346
	c-0.002,0.995-0.17,1.085-1.086,0.596c-0.857-0.457-1.348-1.372-1.238-2.306c0.111-0.942,0.809-1.73,1.707-1.99
	c0.43-0.125,0.656-0.112,0.627,0.432C98.025,48.505,98.053,49.147,98.053,49.789z"/>
<path fill-rule="evenodd" clip-rule="evenodd" fill="#D8E3EC" d="M102.309,33.328c-0.076-0.074-0.152-0.147-0.229-0.22
	c0.199-0.269,0.49-0.363,0.799-0.424C102.785,32.984,102.563,33.17,102.309,33.328z"/>
<path fill-rule="evenodd" clip-rule="evenodd" fill="#4B4A4B" d="M115.848,63.902c-2.66-0.131-4.707-1.256-6.088-3.532
	c-0.414-0.685-0.502-1.344,0.232-1.865c0.633-0.447,1.26-0.197,1.805,0.667c1.982,3.145,6.039,3.148,8.045,0.008
	c0.566-0.89,1.145-1.104,1.805-0.672c0.637,0.417,0.717,1.08,0.186,1.945C120.459,62.693,118.406,63.763,115.848,63.902z"/>
<path fill-rule="evenodd" clip-rule="evenodd" fill="#4B4A4B" d="M122.219,53.305c0-1.167,0.83-2.013,1.992-2.03
	c1.191-0.018,2.107,0.872,2.104,2.04c-0.006,1.104-0.916,2.041-2.016,2.072C123.18,55.418,122.221,54.458,122.219,53.305z"/>
<path fill-rule="evenodd" clip-rule="evenodd" fill="#4B4A4B" d="M105.158,53.313c0-1.172,0.822-2.018,1.984-2.038
	c1.176-0.02,2.123,0.887,2.123,2.033c0.002,1.123-1.002,2.106-2.115,2.078C106.049,55.357,105.16,54.432,105.158,53.313z"/>
<path fill-rule="evenodd" clip-rule="evenodd" fill="#4B4A4B" d="M122.135,82.296c1.162,0,2.322,0.003,3.484-0.002
	c0.719-0.003,1.207,0.323,1.256,1.047c0.053,0.789-0.467,1.222-1.189,1.233c-2.387,0.038-4.773,0.032-7.16-0.006
	c-0.682-0.011-1.17-0.396-1.148-1.161c0.023-0.806,0.514-1.119,1.275-1.114C119.813,82.301,120.975,82.296,122.135,82.296z"/>
</svg>
