<?xml version="1.0" encoding="utf-8"?>
<!-- Generator: Adobe Illustrator 16.0.2, SVG Export Plug-In . SVG Version: 6.00 Build 0)  -->
<!DOCTYPE svg PUBLIC "-//W3C//DTD SVG 1.1//EN" "http://www.w3.org/Graphics/SVG/1.1/DTD/svg11.dtd">
<svg version="1.1" id="Layer_1" xmlns="http://www.w3.org/2000/svg" xmlns:xlink="http://www.w3.org/1999/xlink" x="0px" y="0px"
	 width="166.036px" height="107.636px" viewBox="0 0 166.036 107.636" enable-background="new 0 0 166.036 107.636"
	 xml:space="preserve">
<g>
	<g>
		
			<linearGradient id="SVGID_1_" gradientUnits="userSpaceOnUse" x1="-172.5313" y1="46.0845" x2="-81.8438" y2="46.0845" gradientTransform="matrix(1 0 0 1 246.4814 0)">
			<stop  offset="0" style="stop-color:#D3FFCF"/>
			<stop  offset="1" style="stop-color:#1DFFF2"/>
		</linearGradient>
		<path fill-rule="evenodd" clip-rule="evenodd" fill="url(#SVGID_1_)" d="M116.688,0c-1.84,0-3.344,1.498-3.344,3.345
			c0,1.849,1.504,3.345,3.344,3.345c1.852,0,3.35-1.497,3.35-3.345C120.037,1.498,118.539,0,116.688,0z M75.808,88.455
			c-1.021,0-1.857,0.832-1.857,1.858c0,1.026,0.836,1.856,1.857,1.856c1.028,0,1.858-0.83,1.858-1.856
			C77.666,89.287,76.836,88.455,75.808,88.455z M163.523,72.842c-0.615,0-1.115,0.504-1.115,1.118c0,0.615,0.5,1.114,1.115,1.114
			s1.114-0.499,1.114-1.114C164.638,73.346,164.139,72.842,163.523,72.842z"/>
	</g>
</g>
<path fill="#4C4C4C" d="M53.813,26.276h-5.23c-0.104,0-0.197-0.089-0.197-0.198c0-0.107,0.093-0.196,0.197-0.196h5.23
	c0.104,0,0.197,0.088,0.197,0.196C54.011,26.188,53.918,26.276,53.813,26.276z M43.358,26.276h-5.23
	c-0.104,0-0.197-0.089-0.197-0.198c0-0.107,0.093-0.196,0.197-0.196h5.23c0.104,0,0.197,0.088,0.197,0.196
	C43.556,26.188,43.463,26.276,43.358,26.276z M32.897,26.276h-5.225c-0.11,0-0.197-0.089-0.197-0.198
	c0-0.107,0.087-0.196,0.197-0.196h5.225c0.11,0,0.197,0.088,0.197,0.196C33.095,26.188,33.008,26.276,32.897,26.276z"/>
<path fill="#4C4C4C" d="M43.027,38.746h-5.225c-0.11,0-0.197-0.087-0.197-0.196s0.087-0.196,0.197-0.196h5.225
	c0.11,0,0.197,0.087,0.197,0.196S43.138,38.746,43.027,38.746z M32.572,38.746h-5.225c-0.11,0-0.197-0.087-0.197-0.196
	s0.087-0.196,0.197-0.196h5.225c0.11,0,0.197,0.087,0.197,0.196S32.683,38.746,32.572,38.746z M22.117,38.746h-5.23
	c-0.104,0-0.191-0.087-0.191-0.196s0.088-0.196,0.191-0.196h5.23c0.104,0,0.197,0.087,0.197,0.196S22.222,38.746,22.117,38.746z"/>
<path fill="#4C4C4C" d="M47.369,32.441H0.197C0.087,32.441,0,32.353,0,32.244c0-0.107,0.087-0.196,0.197-0.196h47.172
	c0.105,0,0.198,0.088,0.198,0.196C47.567,32.353,47.475,32.441,47.369,32.441z"/>
<path fill="#4B4A4B" stroke="#FFFFFF" stroke-miterlimit="10" d="M97.925,67.81c3.716-4.571,5.787-9.833,6.207-15.677
	c0.456-6.355-1.24-12.201-4.727-17.525c-0.271-0.414-0.467-0.84-0.561-1.323c-0.402-2.083-1.546-3.512-3.639-4.088
	c-0.463-0.128-0.701-0.387-0.725-0.887c-0.057-1.184,0.105-2.207,0.942-3.214c1.483-1.784,2.701-3.769,2.851-6.204
	c0.165-1.27,0.323-2.54,0.359-3.824c0.016-0.546-0.07-0.8-0.717-0.785c-1.892,0.046-3.785,0.026-5.678,0.012
	c-0.755-0.006-1.216,0.31-1.363,1.059c-0.11,0.905,0.27,1.375,1.272,1.498c0.801,0.098,1.61,0.033,2.415,0.041
	c1.326,0.013,1.401,0.102,1.128,1.387c-1.197,5.637-6.452,9.833-12.416,9.882c-3.159,0.026-6.319,0.006-9.479,0.004
	c-0.944,0-1.86-0.153-2.736-0.52c-1.808-0.898-2.95-2.313-3.07-4.354c-0.107-1.831-0.011-3.671-0.031-5.506
	c-0.007-0.666,0.253-0.966,0.922-0.872c4.924,0.037,9.849,0.011,14.772,0.01c0.453,0,0.912-0.014,1.314-0.248
	c0.467-0.271,0.864-0.598,0.586-1.232c-0.129-0.933-0.731-1.157-1.584-1.154C77.681,14.308,71.392,14.3,65.103,14.3
	c-1.531,0-2.898,0.482-4.14,1.369c-1.733,1.238-2.533,3.013-2.942,5.022c0.002,2.611-0.008,5.222,0.014,7.833
	c0.004,0.516-0.082,0.758-0.672,0.919C55.49,29.955,54.342,31.256,54,33.15c-0.114,0.634-0.343,1.141-0.68,1.65
	c-3.969,6.001-5.362,12.579-4.393,19.684c0.123,0.9,0.496,1.531,1.531,1.483c0.934-0.171,1.245-0.619,1.091-1.736
	c-0.348-2.505-0.399-5.01-0.052-7.515c0.431-3.098,1.396-6.021,2.929-8.754c0.307-0.547,0.578-0.718,1.071-0.189
	c0.378,0.405,0.887,0.682,1.412,0.813c0.822,0.204,0.963,0.737,1.063,1.484c0.799,6,3.786,10.591,8.972,13.737
	c2.415,0.604,2.998,2.274,2.628,4.505c-0.005,0.029-0.008,0.04-0.01,0.045c0.003,0.001,0.005,0.01,0.009,0.051
	c0.061,0.699-0.233,0.996-0.953,0.968c-1.127-0.043-2.249,0.012-3.373,0.174c-3.634,0.525-6.085,2.611-7.72,5.776
	c-0.487,0.944-0.431,0.959-1.106,0.136c-0.845-1.028-1.44-2.215-2.178-3.311c-0.569-0.847-0.953-0.95-1.846-0.592
	c-0.755,0.57-0.762,1.234-0.339,2.029c5.515,10.366,18.153,16.21,29.628,13.747c4.783-1.026,9.043-3.063,12.733-6.264
	C94.917,70.638,97.03,68.91,97.925,67.81z M95.473,66.674c-0.754-2.141-1.95-3.846-3.725-5.123
	c-2.169-1.562-4.629-1.973-7.233-1.897c-1.678,0.048-1.681,0.009-1.679-1.646c0.001-1-0.267-2.113,0.089-2.967
	c0.343-0.825,1.587-0.923,2.394-1.422c5.346-3.309,8.35-8.065,8.912-14.337c0.036-0.413,0.131-0.667,0.569-0.728
	c0.996-0.139,1.837-0.61,2.508-1.333c0.394-0.424,0.531-0.237,0.743,0.132c2.703,4.709,3.924,9.745,3.407,15.179
	c-0.462,4.86-2.185,9.22-5.131,13.104C96.077,65.966,95.801,66.276,95.473,66.674z"/>
<linearGradient id="SVGID_2_" gradientUnits="userSpaceOnUse" x1="68.3564" y1="21.896" x2="96.1904" y2="21.896">
	<stop  offset="0" style="stop-color:#D3FFCF"/>
	<stop  offset="1" style="stop-color:#1DFFF2"/>
</linearGradient>
<path fill-rule="evenodd" clip-rule="evenodd" fill="url(#SVGID_2_)" d="M90.876,15.354c0.059,0.929,0.603,1.28,1.479,1.27
	c0.968-0.012,1.94,0.058,2.902-0.021c0.869-0.07,1.039,0.258,0.881,1.032c-0.765,3.75-2.685,6.716-5.929,8.783
	c-2.057,1.31-4.33,1.963-6.756,1.994c-3.322,0.042-6.646,0.02-9.97,0.005c-0.863-0.004-1.724-0.099-2.492-0.562
	c-1.93-1.214-2.391-3.171-2.559-5.228c-0.141-1.725-0.046-3.461-0.036-5.192c0.002-0.292,0.055-0.577,0.294-0.786
	c5.063-0.01,10.126-0.026,15.189-0.023c0.863,0,1.54-0.187,1.674-1.182c0.507-0.006,1.014-0.011,1.521-0.017
	c0.16,0.059,0.248,0.191,0.344,0.322c0.619,0.84,1.16,0.854,1.829,0.049c0.103-0.124,0.185-0.264,0.338-0.334
	C90.017,15.428,90.446,15.391,90.876,15.354z"/>
<path fill-rule="evenodd" clip-rule="evenodd" fill="#4B4A4B" d="M89.586,15.465c-0.155,0.658-0.424,1.2-1.219,1.222
	c-0.862,0.023-1.103-0.59-1.292-1.258c0.236-0.583,0.577-1.085,1.272-1.079C89.049,14.357,89.368,14.876,89.586,15.465z"/>
<path fill-rule="evenodd" clip-rule="evenodd" fill="#4B4A4B" d="M50.677,57.563c0.63-0.105,1.163,0.05,1.443,0.66
	c0.302,0.656-0.004,1.165-0.501,1.591c-0.701,0.117-1.356,0.083-1.656-0.701C49.682,58.378,50.097,57.923,50.677,57.563z"/>
<path fill-rule="evenodd" clip-rule="evenodd" fill="#FFFFFF" d="M66.42,26.82c1.936,3.011,4.742,4.031,8.133,3.914
	c3.384-0.117,6.773,0.114,10.157-0.119c2.391-0.165,4.581-0.943,6.625-2.169c0.188-0.112,0.379-0.217,0.703-0.402
	c0,0.382,0.004,0.655-0.001,0.927c-0.062,3.482,0.126,6.967-0.117,10.449c-0.464,6.641-5.803,12.701-12.347,13.997
	c-8.955,1.774-17.232-3.748-18.973-12.701c-0.508-2.615-0.2-5.277-0.258-7.917c-0.014-0.644-0.171-1.384,0.089-1.905
	c0.256-0.512,1.099-0.354,1.661-0.57C63.892,29.63,65.328,28.488,66.42,26.82z"/>
<path fill-rule="evenodd" clip-rule="evenodd" fill="#FFFFFF" d="M65.339,62.168c0.387-0.201,0.805-0.208,1.226-0.208
	c6.453,0,12.907-0.018,19.36,0.007c3.56,0.013,6.538,2.392,7.427,5.792c0.181,0.688,0.037,1.119-0.512,1.58
	c-5.021,4.212-10.796,6.337-17.344,6.14c-5.316-0.16-10.159-1.826-14.408-5.09c-0.269-0.367-0.237-0.794-0.226-1.21
	c0.079-2.694,1.324-4.79,3.354-6.471C64.538,62.442,64.938,62.293,65.339,62.168z"/>
<linearGradient id="SVGID_3_" gradientUnits="userSpaceOnUse" x1="61.208" y1="22.3047" x2="65.2236" y2="22.3047">
	<stop  offset="0" style="stop-color:#D3FFCF"/>
	<stop  offset="1" style="stop-color:#1DFFF2"/>
</linearGradient>
<path fill-rule="evenodd" clip-rule="evenodd" fill="url(#SVGID_3_)" d="M63.435,16.957c0.205-0.078,0.404-0.174,0.615-0.23
	c1.068-0.28,1.169-0.205,1.17,0.859c0.002,1.674,0.01,3.348-0.002,5.021c-0.017,2.517-1.354,4.454-3.723,5.415
	c-0.338-0.334-0.276-0.769-0.278-1.177c-0.011-1.825-0.011-3.649-0.003-5.474c0.007-1.398,0.478-2.629,1.35-3.712
	C62.842,17.411,63.188,17.247,63.435,16.957z"/>
<path fill-rule="evenodd" clip-rule="evenodd" fill="#FCFCFD" d="M72.165,55.64c2.699,0.535,5.318,0.604,7.928-0.005
	c0.472-0.11,0.47,0.141,0.469,0.457c-0.001,0.998-0.017,1.996,0.007,2.994c0.011,0.418-0.131,0.551-0.549,0.548
	c-2.446-0.016-4.894-0.012-7.341-0.003c-0.349,0.001-0.528-0.074-0.521-0.477C72.179,58,72.165,56.845,72.165,55.64z"/>
<path fill-rule="evenodd" clip-rule="evenodd" fill="#FFFDFD" d="M65.339,62.168c-2.933,1.957-4.432,4.654-4.251,8.221
	c-0.11-0.064-0.229-0.117-0.329-0.195c-1.767-1.387-1.892-1.721-0.94-3.756C60.916,64.091,62.672,62.522,65.339,62.168z"/>
<path fill-rule="evenodd" clip-rule="evenodd" fill="#FCFDFF" d="M62.863,17.601c-0.952,1.284-1.438,2.693-1.385,4.322
	c0.065,2.031,0.016,4.065,0.016,6.099c-0.325,0.238-0.713,0.24-1.139,0.366c0-2.519-0.091-4.967,0.032-7.405
	c0.078-1.53,0.83-2.819,2.248-3.603C62.849,17.313,62.9,17.412,62.863,17.601z"/>
<path fill-rule="evenodd" clip-rule="evenodd" fill="#FFFFFF" d="M68.69,16.651c-0.001,1.957-0.044,3.916,0.01,5.872
	c0.057,2.064,0.805,3.867,2.291,5.333c-2.063-0.866-3.163-2.463-3.289-4.65c-0.107-1.855,0.02-3.723-0.057-5.582
	C67.61,16.764,67.845,16.445,68.69,16.651z"/>
<path fill-rule="evenodd" clip-rule="evenodd" fill="#F7F5FA" d="M93.898,33.912c0-0.546,0.027-1.094-0.008-1.637
	c-0.038-0.585,0.151-0.74,0.723-0.561c0.973,0.305,1.729,1.316,1.676,2.328c-0.055,1.023-0.813,1.932-1.754,2.168
	c-0.45,0.113-0.665,0.052-0.643-0.468C93.919,35.133,93.898,34.522,93.898,33.912z"/>
<path fill-rule="evenodd" clip-rule="evenodd" fill="#FCFCFD" d="M58.607,34.062c0,0.449,0.001,0.897-0.001,1.346
	c-0.003,0.995-0.17,1.085-1.087,0.596c-0.856-0.457-1.348-1.372-1.237-2.306c0.11-0.942,0.808-1.73,1.706-1.99
	c0.43-0.125,0.657-0.112,0.627,0.432C58.58,32.778,58.607,33.42,58.607,34.062z"/>
<path fill-rule="evenodd" clip-rule="evenodd" fill="#D8E3EC" d="M62.863,17.601c-0.075-0.074-0.151-0.147-0.228-0.22
	c0.198-0.269,0.49-0.363,0.799-0.424C63.341,17.257,63.118,17.443,62.863,17.601z"/>
<path fill-rule="evenodd" clip-rule="evenodd" fill="#4B4A4B" d="M76.403,48.175c-2.66-0.131-4.708-1.256-6.088-3.532
	c-0.415-0.685-0.503-1.344,0.232-1.865c0.632-0.447,1.26-0.197,1.804,0.667c1.982,3.145,6.039,3.148,8.045,0.008
	c0.567-0.89,1.145-1.104,1.805-0.672c0.637,0.417,0.717,1.08,0.187,1.945C81.015,46.966,78.962,48.036,76.403,48.175z"/>
<path fill-rule="evenodd" clip-rule="evenodd" fill="#4B4A4B" d="M82.774,37.578c-0.001-1.167,0.829-2.013,1.992-2.03
	c1.191-0.018,2.107,0.872,2.103,2.04c-0.005,1.104-0.916,2.041-2.015,2.072C83.734,39.691,82.775,38.731,82.774,37.578z"/>
<path fill-rule="evenodd" clip-rule="evenodd" fill="#4B4A4B" d="M65.714,37.585c-0.001-1.172,0.822-2.018,1.983-2.038
	c1.176-0.02,2.123,0.887,2.124,2.033c0.001,1.123-1.002,2.106-2.115,2.078C66.604,39.63,65.715,38.705,65.714,37.585z"/>
<path fill-rule="evenodd" clip-rule="evenodd" fill="#4B4A4B" d="M82.69,66.569c1.161,0,2.322,0.003,3.483-0.002
	c0.719-0.003,1.207,0.323,1.256,1.047c0.054,0.789-0.467,1.222-1.189,1.233c-2.386,0.038-4.772,0.032-7.159-0.006
	c-0.682-0.011-1.171-0.396-1.148-1.161c0.023-0.806,0.514-1.119,1.275-1.114C80.368,66.574,81.529,66.569,82.69,66.569z"/>
<path fill="#4B4A4B" stroke="#FFFFFF" stroke-miterlimit="10" d="M157.243,67.81c3.716-4.571,5.787-9.833,6.207-15.677
	c0.456-6.355-1.24-12.201-4.727-17.525c-0.271-0.414-0.467-0.84-0.561-1.323c-0.402-2.083-1.546-3.512-3.639-4.088
	c-0.463-0.128-0.701-0.387-0.725-0.887c-0.057-1.184,0.105-2.207,0.942-3.214c1.483-1.784,2.701-3.769,2.851-6.204
	c0.165-1.27,0.323-2.54,0.359-3.824c0.016-0.546-0.07-0.8-0.717-0.785c-1.892,0.046-3.785,0.026-5.678,0.012
	c-0.755-0.006-1.216,0.31-1.363,1.059c-0.11,0.905,0.27,1.375,1.272,1.498c0.801,0.098,1.61,0.033,2.415,0.041
	c1.326,0.013,1.401,0.102,1.128,1.387c-1.197,5.637-6.452,9.833-12.416,9.882c-3.159,0.026-6.319,0.006-9.479,0.004
	c-0.944,0-1.86-0.153-2.736-0.52c-1.808-0.898-2.95-2.313-3.07-4.354c-0.107-1.831-0.011-3.671-0.031-5.506
	c-0.007-0.666,0.253-0.966,0.922-0.872c4.924,0.037,9.849,0.011,14.772,0.01c0.453,0,0.912-0.014,1.314-0.248
	c0.467-0.271,0.864-0.598,0.586-1.232c-0.129-0.933-0.731-1.157-1.584-1.154c-6.289,0.016-12.578,0.009-18.867,0.008
	c-1.531,0-2.898,0.482-4.14,1.369c-1.733,1.238-2.533,3.013-2.942,5.022c0.002,2.611-0.008,5.222,0.014,7.833
	c0.004,0.516-0.082,0.758-0.672,0.919c-1.872,0.512-3.021,1.813-3.362,3.707c-0.114,0.634-0.343,1.141-0.68,1.65
	c-3.969,6.001-5.362,12.579-4.393,19.684c0.123,0.9,0.496,1.531,1.531,1.483c0.934-0.171,1.245-0.619,1.091-1.736
	c-0.348-2.505-0.399-5.01-0.052-7.515c0.431-3.098,1.396-6.021,2.929-8.754c0.307-0.547,0.578-0.718,1.071-0.189
	c0.378,0.405,0.887,0.682,1.412,0.813c0.822,0.204,0.963,0.737,1.063,1.484c0.799,6,3.786,10.591,8.972,13.737
	c2.415,0.604,2.998,2.274,2.628,4.505c-0.005,0.029-0.008,0.04-0.01,0.045c0.003,0.001,0.005,0.01,0.009,0.051
	c0.061,0.699-0.233,0.996-0.953,0.968c-1.127-0.043-2.249,0.012-3.373,0.174c-3.634,0.525-6.085,2.611-7.72,5.776
	c-0.487,0.944-0.431,0.959-1.106,0.136c-0.845-1.028-1.44-2.215-2.178-3.311c-0.569-0.847-0.953-0.95-1.846-0.592
	c-0.755,0.57-0.762,1.234-0.339,2.029c5.515,10.366,18.153,16.21,29.628,13.747c4.783-1.026,9.043-3.063,12.733-6.264
	C154.235,70.638,156.349,68.91,157.243,67.81z M154.791,66.674c-0.754-2.141-1.95-3.846-3.725-5.123
	c-2.169-1.562-4.629-1.973-7.233-1.897c-1.678,0.048-1.681,0.009-1.679-1.646c0.001-1-0.267-2.113,0.089-2.967
	c0.343-0.825,1.587-0.923,2.394-1.422c5.346-3.309,8.35-8.065,8.912-14.337c0.036-0.413,0.131-0.667,0.569-0.728
	c0.996-0.139,1.837-0.61,2.508-1.333c0.394-0.424,0.531-0.237,0.743,0.132c2.703,4.709,3.924,9.745,3.407,15.179
	c-0.462,4.86-2.185,9.22-5.131,13.104C155.396,65.966,155.119,66.276,154.791,66.674z"/>
<linearGradient id="SVGID_4_" gradientUnits="userSpaceOnUse" x1="127.6748" y1="21.896" x2="155.5088" y2="21.896">
	<stop  offset="0" style="stop-color:#D3FFCF"/>
	<stop  offset="1" style="stop-color:#1DFFF2"/>
</linearGradient>
<path fill-rule="evenodd" clip-rule="evenodd" fill="url(#SVGID_4_)" d="M150.194,15.354c0.059,0.929,0.603,1.28,1.479,1.27
	c0.968-0.012,1.94,0.058,2.902-0.021c0.869-0.07,1.039,0.258,0.881,1.032c-0.765,3.75-2.685,6.716-5.929,8.783
	c-2.057,1.31-4.33,1.963-6.756,1.994c-3.322,0.042-6.646,0.02-9.97,0.005c-0.863-0.004-1.724-0.099-2.492-0.562
	c-1.93-1.214-2.391-3.171-2.559-5.228c-0.141-1.725-0.046-3.461-0.036-5.192c0.002-0.292,0.055-0.577,0.294-0.786
	c5.063-0.01,10.126-0.026,15.189-0.023c0.863,0,1.54-0.187,1.674-1.182c0.507-0.006,1.014-0.011,1.521-0.017
	c0.16,0.059,0.248,0.191,0.344,0.322c0.619,0.84,1.16,0.854,1.829,0.049c0.103-0.124,0.185-0.264,0.338-0.334
	C149.335,15.428,149.765,15.391,150.194,15.354z"/>
<path fill-rule="evenodd" clip-rule="evenodd" fill="#4B4A4B" d="M148.904,15.465c-0.155,0.658-0.424,1.2-1.219,1.222
	c-0.862,0.023-1.103-0.59-1.292-1.258c0.236-0.583,0.577-1.085,1.272-1.079C148.367,14.357,148.687,14.876,148.904,15.465z"/>
<path fill-rule="evenodd" clip-rule="evenodd" fill="#4B4A4B" d="M109.995,57.563c0.63-0.105,1.163,0.05,1.443,0.66
	c0.302,0.656-0.004,1.165-0.501,1.591c-0.701,0.117-1.356,0.083-1.656-0.701C109,58.378,109.415,57.923,109.995,57.563z"/>
<path fill-rule="evenodd" clip-rule="evenodd" fill="#FFFFFF" d="M125.738,26.82c1.936,3.011,4.742,4.031,8.133,3.914
	c3.384-0.117,6.773,0.114,10.157-0.119c2.391-0.165,4.581-0.943,6.625-2.169c0.188-0.112,0.379-0.217,0.703-0.402
	c0,0.382,0.004,0.655-0.001,0.927c-0.062,3.482,0.126,6.967-0.117,10.449c-0.464,6.641-5.803,12.701-12.347,13.997
	c-8.955,1.774-17.232-3.748-18.973-12.701c-0.508-2.615-0.2-5.277-0.258-7.917c-0.014-0.644-0.171-1.384,0.089-1.905
	c0.256-0.512,1.099-0.354,1.661-0.57C123.21,29.63,124.646,28.488,125.738,26.82z"/>
<path fill-rule="evenodd" clip-rule="evenodd" fill="#FFFFFF" d="M124.657,62.168c0.387-0.201,0.805-0.208,1.226-0.208
	c6.453,0,12.907-0.018,19.36,0.007c3.56,0.013,6.538,2.392,7.427,5.792c0.181,0.688,0.037,1.119-0.512,1.58
	c-5.021,4.212-10.796,6.337-17.344,6.14c-5.316-0.16-10.159-1.826-14.408-5.09c-0.269-0.367-0.237-0.794-0.226-1.21
	c0.079-2.694,1.324-4.79,3.354-6.471C123.856,62.442,124.257,62.293,124.657,62.168z"/>
<linearGradient id="SVGID_5_" gradientUnits="userSpaceOnUse" x1="120.5264" y1="22.3047" x2="124.542" y2="22.3047">
	<stop  offset="0" style="stop-color:#D3FFCF"/>
	<stop  offset="1" style="stop-color:#1DFFF2"/>
</linearGradient>
<path fill-rule="evenodd" clip-rule="evenodd" fill="url(#SVGID_5_)" d="M122.753,16.957c0.205-0.078,0.404-0.174,0.615-0.23
	c1.068-0.28,1.169-0.205,1.17,0.859c0.002,1.674,0.01,3.348-0.002,5.021c-0.017,2.517-1.354,4.454-3.723,5.415
	c-0.338-0.334-0.276-0.769-0.278-1.177c-0.011-1.825-0.011-3.649-0.003-5.474c0.007-1.398,0.478-2.629,1.35-3.712
	C122.16,17.411,122.507,17.247,122.753,16.957z"/>
<path fill-rule="evenodd" clip-rule="evenodd" fill="#FCFCFD" d="M131.483,55.64c2.699,0.535,5.318,0.604,7.928-0.005
	c0.472-0.11,0.47,0.141,0.469,0.457c-0.001,0.998-0.017,1.996,0.007,2.994c0.011,0.418-0.131,0.551-0.549,0.548
	c-2.446-0.016-4.894-0.012-7.341-0.003c-0.349,0.001-0.528-0.074-0.521-0.477C131.497,58,131.483,56.845,131.483,55.64z"/>
<path fill-rule="evenodd" clip-rule="evenodd" fill="#FFFDFD" d="M124.657,62.168c-2.933,1.957-4.432,4.654-4.251,8.221
	c-0.11-0.064-0.229-0.117-0.329-0.195c-1.767-1.387-1.892-1.721-0.94-3.756C120.234,64.091,121.99,62.522,124.657,62.168z"/>
<path fill-rule="evenodd" clip-rule="evenodd" fill="#FFFFFF" d="M122.182,17.601c-0.952,1.284-1.438,2.693-1.385,4.322
	c0.065,2.031,0.016,4.065,0.016,6.099c-0.325,0.238-0.713,0.24-1.139,0.366c0-2.519-0.091-4.967,0.032-7.405
	c0.078-1.53,0.83-2.819,2.248-3.603C122.167,17.313,122.219,17.412,122.182,17.601z"/>
<path fill-rule="evenodd" clip-rule="evenodd" fill="#FFFFFF" d="M128.009,16.651c-0.001,1.957-0.044,3.916,0.01,5.872
	c0.057,2.064,0.805,3.867,2.291,5.333c-2.063-0.866-3.163-2.463-3.289-4.65c-0.107-1.855,0.02-3.723-0.057-5.582
	C126.929,16.764,127.163,16.445,128.009,16.651z"/>
<path fill-rule="evenodd" clip-rule="evenodd" fill="#F7F5FA" d="M153.217,33.912c0-0.546,0.027-1.094-0.008-1.637
	c-0.038-0.585,0.151-0.74,0.723-0.561c0.973,0.305,1.729,1.316,1.676,2.328c-0.055,1.023-0.813,1.932-1.754,2.168
	c-0.45,0.113-0.665,0.052-0.643-0.468C153.237,35.133,153.217,34.522,153.217,33.912z"/>
<path fill-rule="evenodd" clip-rule="evenodd" fill="#FCFCFD" d="M117.926,34.062c0,0.449,0.001,0.897-0.001,1.346
	c-0.003,0.995-0.17,1.085-1.087,0.596c-0.856-0.457-1.348-1.372-1.237-2.306c0.11-0.942,0.808-1.73,1.706-1.99
	c0.43-0.125,0.657-0.112,0.627,0.432C117.898,32.778,117.926,33.42,117.926,34.062z"/>
<path fill-rule="evenodd" clip-rule="evenodd" fill="#D8E3EC" d="M122.182,17.601c-0.075-0.074-0.151-0.147-0.228-0.22
	c0.198-0.269,0.49-0.363,0.799-0.424C122.659,17.257,122.437,17.443,122.182,17.601z"/>
<path fill-rule="evenodd" clip-rule="evenodd" fill="#4B4A4B" d="M135.722,48.175c-2.66-0.131-4.708-1.256-6.088-3.532
	c-0.415-0.685-0.503-1.344,0.232-1.865c0.632-0.447,1.26-0.197,1.804,0.667c1.982,3.145,6.039,3.148,8.045,0.008
	c0.567-0.89,1.145-1.104,1.805-0.672c0.637,0.417,0.717,1.08,0.187,1.945C140.333,46.966,138.28,48.036,135.722,48.175z"/>
<path fill-rule="evenodd" clip-rule="evenodd" fill="#4B4A4B" d="M142.093,37.578c-0.001-1.167,0.829-2.013,1.992-2.03
	c1.191-0.018,2.107,0.872,2.103,2.04c-0.005,1.104-0.916,2.041-2.015,2.072C143.053,39.691,142.094,38.731,142.093,37.578z"/>
<path fill-rule="evenodd" clip-rule="evenodd" fill="#4B4A4B" d="M125.032,37.585c-0.001-1.172,0.822-2.018,1.983-2.038
	c1.176-0.02,2.123,0.887,2.124,2.033c0.001,1.123-1.002,2.106-2.115,2.078C125.923,39.63,125.033,38.705,125.032,37.585z"/>
<path fill-rule="evenodd" clip-rule="evenodd" fill="#4B4A4B" d="M142.009,66.569c1.161,0,2.322,0.003,3.483-0.002
	c0.719-0.003,1.207,0.323,1.256,1.047c0.054,0.789-0.467,1.222-1.189,1.233c-2.386,0.038-4.772,0.032-7.159-0.006
	c-0.682-0.011-1.171-0.396-1.148-1.161c0.023-0.806,0.514-1.119,1.275-1.114C139.687,66.574,140.848,66.569,142.009,66.569z"/>
<path fill-rule="evenodd" clip-rule="evenodd" fill="#4B4A4B" stroke="#FFFFFF" stroke-miterlimit="10" d="M89.903,71.694
	c-1.035,0.048-1.408-0.583-1.531-1.483c-0.97-7.105,0.424-13.683,4.393-19.684c0.337-0.51,0.565-1.016,0.68-1.65
	c0.342-1.894,1.49-3.195,3.362-3.707c0.59-0.162,0.676-0.403,0.672-0.919c-0.021-2.61-0.012-5.222-0.014-7.833
	c0.409-2.009,1.209-3.785,2.942-5.022c1.241-0.887,2.608-1.369,4.14-1.369c6.289,0,12.578,0.008,18.867-0.008
	c0.853-0.002,1.455,0.221,1.584,1.154c0.278,0.635-0.119,0.962-0.586,1.232c-0.402,0.234-0.861,0.248-1.314,0.248
	c-4.924,0-9.849,0.026-14.772-0.01c-0.669-0.094-0.929,0.206-0.922,0.872c0.021,1.835-0.076,3.676,0.031,5.506
	c0.12,2.041,1.263,3.455,3.07,4.354c0.876,0.367,1.792,0.52,2.736,0.52c3.159,0.001,6.319,0.022,9.479-0.004
	c5.964-0.05,11.219-4.246,12.416-9.882c0.273-1.285,0.198-1.374-1.128-1.387c-0.805-0.008-1.614,0.057-2.415-0.041
	c-1.003-0.123-1.383-0.593-1.272-1.498c0.147-0.749,0.608-1.065,1.363-1.059c1.893,0.015,3.786,0.035,5.678-0.012
	c0.646-0.016,0.732,0.239,0.717,0.785c-0.036,1.284-0.194,2.554-0.359,3.824c-0.149,2.435-1.367,4.419-2.851,6.204
	c-0.837,1.007-0.999,2.03-0.942,3.214c0.023,0.5,0.262,0.759,0.725,0.887c2.093,0.576,3.236,2.005,3.639,4.088
	c0.094,0.483,0.289,0.909,0.561,1.323c3.486,5.325,5.183,11.17,4.727,17.525c-0.42,5.844-2.491,11.105-6.207,15.677
	c-0.895,1.1-0.915,1.107,0.093,2.117c0.912,0.913,1.832,1.818,2.734,2.74c0.379,0.387,0.774,0.516,1.305,0.345
	c2.252-0.728,4.131-0.057,5.69,1.622c0.738,0.795,1.703,1.396,2.158,2.443c1.946,1.971,3.914,3.92,5.834,5.917
	c2.544,2.646,1.557,6.809-1.867,7.863c-1.854,0.571-3.493,0.097-4.872-1.263c-1.95-1.921-3.896-3.847-5.843-5.771
	c-0.853-0.875-1.697-1.757-2.559-2.623c-1.57-1.58-1.99-3.405-1.138-5.47c0.17-0.413,0.075-0.618-0.208-0.895
	c-1.245-1.217-2.484-2.441-3.689-3.697c-0.406-0.423-0.646-0.5-1.146-0.067c-3.69,3.201-7.95,5.237-12.733,6.264
	c-11.475,2.463-24.113-3.38-29.628-13.747c-0.423-0.795-0.416-1.459,0.339-2.029c0.893-0.358,1.276-0.255,1.846,0.592
	c0.737,1.096,1.333,2.283,2.178,3.311c0.676,0.823,0.619,0.808,1.106-0.136c1.635-3.165,4.086-5.251,7.72-5.776
	c1.124-0.162,2.246-0.217,3.373-0.174c0.72,0.028,1.014-0.269,0.953-0.968c-0.011-0.128-0.02,0.03,0.001-0.096
	c0.37-2.23-0.213-3.901-2.628-4.505c-5.186-3.146-8.173-7.737-8.972-13.737c-0.1-0.748-0.24-1.281-1.063-1.484
	c-0.525-0.131-1.034-0.407-1.412-0.813c-0.493-0.529-0.765-0.358-1.071,0.189c-1.533,2.733-2.498,5.656-2.929,8.754
	c-0.348,2.505-0.296,5.01,0.052,7.515C91.148,71.075,90.837,71.523,89.903,71.694z"/>
<linearGradient id="SVGID_6_" gradientUnits="userSpaceOnUse" x1="107.8008" y1="37.6226" x2="135.6348" y2="37.6226">
	<stop  offset="0" style="stop-color:#D3FFCF"/>
	<stop  offset="1" style="stop-color:#1DFFF2"/>
</linearGradient>
<path fill-rule="evenodd" clip-rule="evenodd" fill="url(#SVGID_6_)" d="M130.32,31.082c0.059,0.929,0.603,1.28,1.479,1.27
	c0.968-0.012,1.94,0.058,2.902-0.021c0.869-0.07,1.039,0.258,0.881,1.032c-0.765,3.75-2.685,6.716-5.929,8.783
	c-2.057,1.31-4.33,1.963-6.756,1.994c-3.322,0.042-6.646,0.02-9.97,0.005c-0.863-0.004-1.724-0.099-2.492-0.562
	c-1.93-1.214-2.391-3.171-2.559-5.228c-0.141-1.725-0.046-3.461-0.036-5.192c0.002-0.292,0.055-0.577,0.294-0.786
	c5.063-0.01,10.126-0.026,15.189-0.023c0.863,0,1.54-0.187,1.674-1.182c0.507-0.006,1.014-0.011,1.521-0.017
	c0.16,0.059,0.248,0.191,0.344,0.322c0.619,0.84,1.16,0.854,1.829,0.049c0.103-0.124,0.185-0.264,0.338-0.334
	C129.461,31.155,129.891,31.118,130.32,31.082z"/>
<path fill-rule="evenodd" clip-rule="evenodd" fill="#4B4A4B" d="M129.03,31.192c-0.155,0.658-0.424,1.2-1.219,1.222
	c-0.862,0.023-1.103-0.59-1.292-1.258c0.236-0.583,0.577-1.085,1.272-1.079C128.493,30.084,128.813,30.603,129.03,31.192z"/>
<path fill-rule="evenodd" clip-rule="evenodd" fill="#FFFFFF" d="M89.903,71.694c0.743-0.347,0.968-0.876,0.844-1.718
	c-0.919-6.206,0.21-12.009,3.521-17.428c0.828,0.848,1.697,1.522,2.866,1.738c0.622,0.115,0.425,0.731,0.464,1.131
	c0.315,3.243,1.438,6.173,3.331,8.815c1.98,2.763,4.531,4.818,7.674,6.112c0.524,0.216,0.738,0.474,0.708,1.055
	c-0.052,1.03-0.06,2.066,0.001,3.095c0.041,0.702-0.13,0.948-0.884,0.917c-1.478-0.063-2.973-0.124-4.428,0.229
	c-3.519,0.851-5.907,2.983-7.141,6.396c-0.032,0.09-0.063,0.182-0.109,0.265c-0.03,0.055-0.085,0.095-0.155,0.169
	c-1.144-1.275-2.123-2.665-2.919-4.169c-0.417-0.787-0.934-1.201-1.837-1.015c-0.467-0.488-0.614-1.12-0.776-1.744
	c-0.01-0.03-0.035-0.065-0.026-0.089c0.516-1.461,0.47-1.57-0.916-2.162C90.049,72.758,89.977,72.226,89.903,71.694z"/>
<path fill-rule="evenodd" clip-rule="evenodd" fill="#4B4A4B" d="M90.121,73.291c0.63-0.105,1.163,0.05,1.443,0.66
	c0.302,0.656-0.004,1.165-0.501,1.591c-0.701,0.117-1.356,0.083-1.656-0.701C89.126,74.105,89.541,73.65,90.121,73.291z"/>
<path fill-rule="evenodd" clip-rule="evenodd" fill="#FFFFFF" d="M105.864,42.547c1.936,3.011,4.742,4.031,8.133,3.914
	c3.384-0.117,6.773,0.114,10.157-0.119c2.391-0.165,4.581-0.943,6.625-2.169c0.188-0.112,0.379-0.217,0.703-0.402
	c0,0.382,0.004,0.655-0.001,0.927c-0.062,3.482,0.126,6.967-0.117,10.449c-0.464,6.641-5.803,12.701-12.347,13.997
	c-8.955,1.774-17.232-3.748-18.973-12.701c-0.508-2.615-0.2-5.277-0.258-7.917c-0.014-0.644-0.171-1.384,0.089-1.905
	c0.256-0.512,1.099-0.354,1.661-0.57C103.336,45.357,104.772,44.215,105.864,42.547z"/>
<path fill-rule="evenodd" clip-rule="evenodd" fill="#FFFFFF" d="M104.783,77.896c0.387-0.201,0.805-0.208,1.226-0.208
	c6.453,0,12.907-0.018,19.36,0.007c3.56,0.013,6.538,2.392,7.427,5.792c0.181,0.688,0.037,1.119-0.512,1.58
	c-5.021,4.212-10.796,6.337-17.344,6.14c-5.316-0.16-10.159-1.826-14.408-5.09c-0.269-0.367-0.237-0.794-0.226-1.21
	c0.079-2.694,1.324-4.79,3.354-6.471C103.982,78.169,104.383,78.021,104.783,77.896z"/>
<path fill-rule="evenodd" clip-rule="evenodd" fill="#FFFFFF" d="M134.917,82.401c-0.754-2.141-1.95-3.846-3.725-5.123
	c-2.169-1.562-4.629-1.973-7.233-1.897c-1.678,0.048-1.681,0.009-1.679-1.646c0.001-1-0.267-2.113,0.089-2.967
	c0.343-0.825,1.587-0.923,2.394-1.422c5.346-3.309,8.35-8.065,8.912-14.337c0.036-0.413,0.131-0.667,0.569-0.728
	c0.996-0.139,1.837-0.61,2.508-1.333c0.394-0.424,0.531-0.237,0.743,0.132c2.703,4.709,3.924,9.745,3.407,15.179
	c-0.462,4.86-2.185,9.22-5.131,13.104C135.521,81.693,135.245,82.003,134.917,82.401z"/>
<linearGradient id="SVGID_7_" gradientUnits="userSpaceOnUse" x1="142.9307" y1="97.7534" x2="154.2773" y2="97.7534">
	<stop  offset="0" style="stop-color:#D3FFCF"/>
	<stop  offset="1" style="stop-color:#1DFFF2"/>
</linearGradient>
<path fill-rule="evenodd" clip-rule="evenodd" fill="url(#SVGID_7_)" d="M143.785,91.189c0.604,0.038,0.979,0.462,1.361,0.844
	c2.743,2.729,5.489,5.457,8.21,8.208c1.451,1.469,1.155,3.173-0.659,4.075c-0.306-0.125-0.53-0.355-0.758-0.583
	c-2.589-2.594-5.194-5.171-7.766-7.781c-1.093-1.108-1.557-2.421-1.019-3.965C143.271,91.655,143.392,91.31,143.785,91.189z"/>
<linearGradient id="SVGID_8_" gradientUnits="userSpaceOnUse" x1="100.6523" y1="38.0317" x2="104.668" y2="38.0317">
	<stop  offset="0" style="stop-color:#D3FFCF"/>
	<stop  offset="1" style="stop-color:#1DFFF2"/>
</linearGradient>
<path fill-rule="evenodd" clip-rule="evenodd" fill="url(#SVGID_8_)" d="M102.879,32.684c0.205-0.078,0.404-0.174,0.615-0.23
	c1.068-0.28,1.169-0.205,1.17,0.859c0.002,1.674,0.01,3.348-0.002,5.021c-0.017,2.517-1.354,4.454-3.723,5.415
	c-0.338-0.334-0.276-0.769-0.278-1.177c-0.011-1.825-0.011-3.649-0.003-5.474c0.007-1.398,0.478-2.629,1.35-3.712
	C102.286,33.138,102.633,32.974,102.879,32.684z"/>
<path fill-rule="evenodd" clip-rule="evenodd" fill="#FCFCFD" d="M111.609,71.367c2.699,0.535,5.318,0.604,7.928-0.005
	c0.472-0.11,0.47,0.141,0.469,0.457c-0.001,0.998-0.017,1.996,0.007,2.994c0.011,0.418-0.131,0.551-0.549,0.548
	c-2.446-0.016-4.894-0.012-7.341-0.003c-0.349,0.001-0.528-0.074-0.521-0.477C111.623,73.727,111.609,72.572,111.609,71.367z"/>
<path fill-rule="evenodd" clip-rule="evenodd" fill="#FFFFFF" d="M143.785,91.189c-0.993,1.854-0.801,3.254,0.66,4.718
	c2.528,2.533,5.062,5.061,7.589,7.593c0.248,0.248,0.545,0.461,0.663,0.816c-1.025,0.304-1.885,0.041-2.636-0.715
	c-2.796-2.812-5.61-5.604-8.403-8.417c-0.922-0.929-1.081-2.01-0.5-2.978C141.724,91.266,142.671,90.899,143.785,91.189z"/>
<path fill-rule="evenodd" clip-rule="evenodd" fill="#FFFDFD" d="M104.783,77.896c-2.933,1.957-4.432,4.654-4.251,8.221
	c-0.11-0.064-0.229-0.117-0.329-0.195c-1.767-1.387-1.892-1.721-0.94-3.756C100.36,79.818,102.116,78.249,104.783,77.896z"/>
<path fill-rule="evenodd" clip-rule="evenodd" fill="#FFFFFF" d="M102.308,33.328c-0.952,1.284-1.438,2.693-1.385,4.322
	c0.065,2.031,0.016,4.065,0.016,6.099c-0.325,0.238-0.713,0.24-1.139,0.366c0-2.519-0.091-4.967,0.032-7.405
	c0.078-1.53,0.83-2.819,2.248-3.603C102.293,33.041,102.345,33.139,102.308,33.328z"/>
<path fill-rule="evenodd" clip-rule="evenodd" fill="#FFFFFF" d="M108.135,32.378c-0.001,1.957-0.044,3.916,0.01,5.872
	c0.057,2.064,0.805,3.867,2.291,5.333c-2.063-0.866-3.163-2.463-3.289-4.65c-0.107-1.855,0.02-3.723-0.057-5.582
	C107.055,32.491,107.289,32.172,108.135,32.378z"/>
<path fill-rule="evenodd" clip-rule="evenodd" fill="#F7F5FA" d="M133.343,49.639c0-0.546,0.027-1.094-0.008-1.637
	c-0.038-0.585,0.151-0.74,0.723-0.561c0.973,0.305,1.729,1.316,1.676,2.328c-0.055,1.023-0.813,1.932-1.754,2.168
	c-0.45,0.113-0.665,0.052-0.643-0.468C133.363,50.86,133.343,50.249,133.343,49.639z"/>
<path fill-rule="evenodd" clip-rule="evenodd" fill="#FCFCFD" d="M98.052,49.789c0,0.449,0.001,0.897-0.001,1.346
	c-0.003,0.995-0.17,1.085-1.087,0.596c-0.856-0.457-1.348-1.372-1.237-2.306c0.11-0.942,0.808-1.73,1.706-1.99
	c0.43-0.125,0.657-0.112,0.627,0.432C98.024,48.505,98.052,49.147,98.052,49.789z"/>
<path fill-rule="evenodd" clip-rule="evenodd" fill="#D8E3EC" d="M102.308,33.328c-0.075-0.074-0.151-0.147-0.228-0.22
	c0.198-0.269,0.49-0.363,0.799-0.424C102.785,32.984,102.563,33.17,102.308,33.328z"/>
<path fill-rule="evenodd" clip-rule="evenodd" fill="#4B4A4B" d="M115.848,63.902c-2.66-0.131-4.708-1.256-6.088-3.532
	c-0.415-0.685-0.503-1.344,0.232-1.865c0.632-0.447,1.26-0.197,1.804,0.667c1.982,3.145,6.039,3.148,8.045,0.008
	c0.567-0.89,1.145-1.104,1.805-0.672c0.637,0.417,0.717,1.08,0.187,1.945C120.459,62.693,118.406,63.763,115.848,63.902z"/>
<path fill-rule="evenodd" clip-rule="evenodd" fill="#4B4A4B" d="M122.219,53.305c-0.001-1.167,0.829-2.013,1.992-2.03
	c1.191-0.018,2.107,0.872,2.103,2.04c-0.005,1.104-0.916,2.041-2.015,2.072C123.179,55.418,122.22,54.458,122.219,53.305z"/>
<path fill-rule="evenodd" clip-rule="evenodd" fill="#4B4A4B" d="M105.158,53.313c-0.001-1.172,0.822-2.018,1.983-2.038
	c1.176-0.02,2.123,0.887,2.124,2.033c0.001,1.123-1.002,2.106-2.115,2.078C106.049,55.357,105.159,54.432,105.158,53.313z"/>
<path fill-rule="evenodd" clip-rule="evenodd" fill="#4B4A4B" d="M122.135,82.296c1.161,0,2.322,0.003,3.483-0.002
	c0.719-0.003,1.207,0.323,1.256,1.047c0.054,0.789-0.467,1.222-1.189,1.233c-2.386,0.038-4.772,0.032-7.159-0.006
	c-0.682-0.011-1.171-0.396-1.148-1.161c0.023-0.806,0.514-1.119,1.275-1.114C119.813,82.301,120.974,82.296,122.135,82.296z"/>
</svg>
