<?xml version="1.0" encoding="utf-8"?>
<!-- Generator: Adobe Illustrator 16.0.2, SVG Export Plug-In . SVG Version: 6.00 Build 0)  -->
<!DOCTYPE svg PUBLIC "-//W3C//DTD SVG 1.1//EN" "http://www.w3.org/Graphics/SVG/1.1/DTD/svg11.dtd">
<svg version="1.1" id="Layer_1" xmlns="http://www.w3.org/2000/svg" xmlns:xlink="http://www.w3.org/1999/xlink" x="0px" y="0px"
	 width="152.786px" height="104.441px" viewBox="0 0 152.786 104.441" enable-background="new 0 0 152.786 104.441"
	 xml:space="preserve">
<g>
	<g>
		
			<linearGradient id="SVGID_1_" gradientUnits="userSpaceOnUse" x1="-387.8652" y1="46.0845" x2="-297.1777" y2="46.0845" gradientTransform="matrix(1 0 0 1 431.9404 0)">
			<stop  offset="0" style="stop-color:#D3FFCF"/>
			<stop  offset="1" style="stop-color:#1DFFF2"/>
		</linearGradient>
		<path fill-rule="evenodd" clip-rule="evenodd" fill="url(#SVGID_1_)" d="M86.813,0c-1.84,0-3.344,1.498-3.344,3.345
			c0,1.849,1.504,3.345,3.344,3.345c1.852,0,3.35-1.497,3.35-3.345C90.162,1.498,88.664,0,86.813,0z M45.933,88.455
			c-1.021,0-1.857,0.832-1.857,1.858c0,1.026,0.836,1.856,1.857,1.856c1.028,0,1.858-0.83,1.858-1.856
			C47.791,89.287,46.961,88.455,45.933,88.455z M133.648,72.842c-0.615,0-1.115,0.504-1.115,1.118c0,0.615,0.5,1.114,1.115,1.114
			s1.114-0.499,1.114-1.114C134.763,73.346,134.264,72.842,133.648,72.842z"/>
	</g>
</g>
<path fill="#4C4C4C" d="M53.813,26.276h-5.23c-0.104,0-0.197-0.089-0.197-0.198c0-0.107,0.093-0.196,0.197-0.196h5.23
	c0.104,0,0.197,0.088,0.197,0.196C54.011,26.188,53.918,26.276,53.813,26.276z M43.358,26.276h-5.23
	c-0.104,0-0.197-0.089-0.197-0.198c0-0.107,0.093-0.196,0.197-0.196h5.23c0.104,0,0.197,0.088,0.197,0.196
	C43.556,26.188,43.463,26.276,43.358,26.276z M32.897,26.276h-5.225c-0.11,0-0.197-0.089-0.197-0.198
	c0-0.107,0.087-0.196,0.197-0.196h5.225c0.11,0,0.197,0.088,0.197,0.196C33.095,26.188,33.008,26.276,32.897,26.276z"/>
<path fill="#4C4C4C" d="M43.027,38.746h-5.225c-0.11,0-0.197-0.087-0.197-0.196s0.087-0.196,0.197-0.196h5.225
	c0.11,0,0.197,0.087,0.197,0.196S43.138,38.746,43.027,38.746z M32.572,38.746h-5.225c-0.11,0-0.197-0.087-0.197-0.196
	s0.087-0.196,0.197-0.196h5.225c0.11,0,0.197,0.087,0.197,0.196S32.683,38.746,32.572,38.746z M22.117,38.746h-5.23
	c-0.104,0-0.191-0.087-0.191-0.196s0.088-0.196,0.191-0.196h5.23c0.104,0,0.197,0.087,0.197,0.196S22.222,38.746,22.117,38.746z"/>
<path fill="#4C4C4C" d="M47.369,32.441H0.197C0.087,32.441,0,32.353,0,32.244c0-0.107,0.087-0.196,0.197-0.196h47.172
	c0.105,0,0.198,0.088,0.198,0.196C47.567,32.353,47.475,32.441,47.369,32.441z"/>
<path fill="#4C4C4C" d="M97.499,26.079c0-0.107,0.093-0.196,0.197-0.196h5.23c0.104,0,0.197,0.088,0.197,0.196
	c0,0.109-0.093,0.198-0.197,0.198h-5.23C97.592,26.276,97.499,26.188,97.499,26.079z M107.954,26.079
	c0-0.107,0.093-0.196,0.197-0.196h5.23c0.104,0,0.197,0.088,0.197,0.196c0,0.109-0.093,0.198-0.197,0.198h-5.23
	C108.047,26.276,107.954,26.188,107.954,26.079z M118.415,26.079c0-0.107,0.087-0.196,0.197-0.196h5.225
	c0.11,0,0.197,0.088,0.197,0.196c0,0.109-0.087,0.198-0.197,0.198h-5.225C118.502,26.276,118.415,26.188,118.415,26.079z"/>
<path fill="#4C4C4C" d="M108.285,38.55c0-0.109,0.087-0.196,0.197-0.196h5.225c0.11,0,0.197,0.087,0.197,0.196
	s-0.087,0.196-0.197,0.196h-5.225C108.372,38.746,108.285,38.659,108.285,38.55z M118.74,38.55c0-0.109,0.087-0.196,0.197-0.196
	h5.225c0.11,0,0.197,0.087,0.197,0.196s-0.087,0.196-0.197,0.196h-5.225C118.827,38.746,118.74,38.659,118.74,38.55z M129.195,38.55
	c0-0.109,0.093-0.196,0.197-0.196h5.23c0.104,0,0.191,0.087,0.191,0.196s-0.088,0.196-0.191,0.196h-5.23
	C129.288,38.746,129.195,38.659,129.195,38.55z"/>
<path fill="#4C4C4C" d="M104.141,32.441h47.172c0.11,0,0.197-0.088,0.197-0.197c0-0.107-0.087-0.196-0.197-0.196h-47.172
	c-0.105,0-0.198,0.088-0.198,0.196C103.942,32.353,104.035,32.441,104.141,32.441z"/>
<path fill="#4B4A4B" stroke="#FFFFFF" stroke-miterlimit="10" d="M97.925,67.81c3.716-4.571,5.787-9.833,6.207-15.677
	c0.456-6.355-1.24-12.201-4.727-17.525c-0.271-0.414-0.467-0.84-0.561-1.323c-0.402-2.083-1.546-3.512-3.639-4.088
	c-0.463-0.128-0.701-0.387-0.725-0.887c-0.057-1.184,0.105-2.207,0.942-3.214c1.483-1.784,2.701-3.769,2.851-6.204
	c0.165-1.27,0.323-2.54,0.359-3.824c0.016-0.546-0.07-0.8-0.717-0.785c-1.892,0.046-3.785,0.026-5.678,0.012
	c-0.755-0.006-1.216,0.31-1.363,1.059c-0.11,0.905,0.27,1.375,1.272,1.498c0.801,0.098,1.61,0.033,2.415,0.041
	c1.326,0.013,1.401,0.102,1.128,1.387c-1.197,5.637-6.452,9.833-12.416,9.882c-3.159,0.026-6.319,0.006-9.479,0.004
	c-0.944,0-1.86-0.153-2.736-0.52c-1.808-0.898-2.95-2.313-3.07-4.354c-0.107-1.831-0.011-3.671-0.031-5.506
	c-0.007-0.666,0.253-0.966,0.922-0.872c4.924,0.037,9.849,0.011,14.772,0.01c0.453,0,0.912-0.014,1.314-0.248
	c0.467-0.271,0.864-0.598,0.586-1.232c-0.129-0.933-0.731-1.157-1.584-1.154C77.681,14.308,71.392,14.3,65.103,14.3
	c-1.531,0-2.898,0.482-4.14,1.369c-1.733,1.238-2.533,3.013-2.942,5.022c0.002,2.611-0.008,5.222,0.014,7.833
	c0.004,0.516-0.082,0.758-0.672,0.919C55.49,29.955,54.342,31.256,54,33.15c-0.114,0.634-0.343,1.141-0.68,1.65
	c-3.969,6.001-5.362,12.579-4.393,19.684c0.123,0.9,0.496,1.531,1.531,1.483c0.934-0.171,1.245-0.619,1.091-1.736
	c-0.348-2.505-0.399-5.01-0.052-7.515c0.431-3.098,1.396-6.021,2.929-8.754c0.307-0.547,0.578-0.718,1.071-0.189
	c0.378,0.405,0.887,0.682,1.412,0.813c0.822,0.204,0.963,0.737,1.063,1.484c0.799,6,3.786,10.591,8.972,13.737
	c2.415,0.604,2.998,2.274,2.628,4.505c-0.005,0.029-0.008,0.04-0.01,0.045c0.003,0.001,0.005,0.01,0.009,0.051
	c0.061,0.699-0.233,0.996-0.953,0.968c-1.127-0.043-2.249,0.012-3.373,0.174c-3.634,0.525-6.085,2.611-7.72,5.776
	c-0.487,0.944-0.431,0.959-1.106,0.136c-0.845-1.028-1.44-2.215-2.178-3.311c-0.569-0.847-0.953-0.95-1.846-0.592
	c-0.755,0.57-0.762,1.234-0.339,2.029c5.515,10.366,18.153,16.21,29.628,13.747c4.783-1.026,9.043-3.063,12.733-6.264
	C94.917,70.638,97.03,68.91,97.925,67.81z M95.473,66.674c-0.754-2.141-1.95-3.846-3.725-5.123
	c-2.169-1.562-4.629-1.973-7.233-1.897c-1.678,0.048-1.681,0.009-1.679-1.646c0.001-1-0.267-2.113,0.089-2.967
	c0.343-0.825,1.587-0.923,2.394-1.422c5.346-3.309,8.35-8.065,8.912-14.337c0.036-0.413,0.131-0.667,0.569-0.728
	c0.996-0.139,1.837-0.61,2.508-1.333c0.394-0.424,0.531-0.237,0.743,0.132c2.703,4.709,3.924,9.745,3.407,15.179
	c-0.462,4.86-2.185,9.22-5.131,13.104C96.077,65.966,95.801,66.276,95.473,66.674z"/>
<path fill-rule="evenodd" clip-rule="evenodd" fill="#39CC74" d="M90.876,15.354c0.059,0.929,0.603,1.28,1.479,1.27
	c0.968-0.012,1.94,0.058,2.902-0.021c0.869-0.07,1.039,0.258,0.881,1.032c-0.765,3.75-2.685,6.716-5.929,8.783
	c-2.057,1.31-4.33,1.963-6.756,1.994c-3.322,0.042-6.646,0.02-9.97,0.005c-0.863-0.004-1.724-0.099-2.492-0.562
	c-1.93-1.214-2.391-3.171-2.559-5.228c-0.141-1.725-0.046-3.461-0.036-5.192c0.002-0.292,0.055-0.577,0.294-0.786
	c5.063-0.01,10.126-0.026,15.189-0.023c0.863,0,1.54-0.187,1.674-1.182c0.507-0.006,1.014-0.011,1.521-0.017
	c0.16,0.059,0.248,0.191,0.344,0.322c0.619,0.84,1.16,0.854,1.829,0.049c0.103-0.124,0.185-0.264,0.338-0.334
	C90.017,15.428,90.446,15.391,90.876,15.354z"/>
<path fill-rule="evenodd" clip-rule="evenodd" fill="#4B4A4B" d="M50.677,57.563c0.63-0.105,1.163,0.05,1.443,0.66
	c0.302,0.656-0.004,1.165-0.501,1.591c-0.701,0.117-1.356,0.083-1.656-0.701C49.682,58.378,50.097,57.923,50.677,57.563z"/>
<path fill-rule="evenodd" clip-rule="evenodd" fill="#FFFFFF" d="M66.42,26.82c1.936,3.011,4.742,4.031,8.133,3.914
	c3.384-0.117,6.773,0.114,10.157-0.119c2.391-0.165,4.581-0.943,6.625-2.169c0.188-0.112,0.379-0.217,0.703-0.402
	c0,0.382,0.004,0.655-0.001,0.927c-0.062,3.482,0.126,6.967-0.117,10.449c-0.464,6.641-5.803,12.701-12.347,13.997
	c-8.955,1.774-17.232-3.748-18.973-12.701c-0.508-2.615-0.2-5.277-0.258-7.917c-0.014-0.644-0.171-1.384,0.089-1.905
	c0.256-0.512,1.099-0.354,1.661-0.57C63.892,29.63,65.328,28.488,66.42,26.82z"/>
<path fill-rule="evenodd" clip-rule="evenodd" fill="#FFFFFF" d="M65.339,62.168c0.387-0.201,0.805-0.208,1.226-0.208
	c6.453,0,12.907-0.018,19.36,0.007c3.56,0.013,6.538,2.392,7.427,5.792c0.181,0.688,0.037,1.119-0.512,1.58
	c-5.021,4.212-10.796,6.337-17.344,6.14c-5.316-0.16-10.159-1.826-14.408-5.09c-0.269-0.367-0.237-0.794-0.226-1.21
	c0.079-2.694,1.324-4.79,3.354-6.471C64.538,62.442,64.938,62.293,65.339,62.168z"/>
<path fill-rule="evenodd" clip-rule="evenodd" fill="#39CC74" d="M63.435,16.957c0.205-0.078,0.404-0.174,0.615-0.23
	c1.068-0.28,1.169-0.205,1.17,0.859c0.002,1.674,0.01,3.348-0.002,5.021c-0.017,2.517-1.354,4.454-3.723,5.415
	c-0.338-0.334-0.276-0.769-0.278-1.177c-0.011-1.825-0.011-3.649-0.003-5.474c0.007-1.398,0.478-2.629,1.35-3.712
	C62.842,17.411,63.188,17.247,63.435,16.957z"/>
<path fill-rule="evenodd" clip-rule="evenodd" fill="#FCFCFD" d="M72.165,55.64c2.699,0.535,5.318,0.604,7.928-0.005
	c0.472-0.11,0.47,0.141,0.469,0.457c-0.001,0.998-0.017,1.996,0.007,2.994c0.011,0.418-0.131,0.551-0.549,0.548
	c-2.446-0.016-4.894-0.012-7.341-0.003c-0.349,0.001-0.528-0.074-0.521-0.477C72.179,58,72.165,56.845,72.165,55.64z"/>
<path fill-rule="evenodd" clip-rule="evenodd" fill="#FFFDFD" d="M65.339,62.168c-2.933,1.957-4.432,4.654-4.251,8.221
	c-0.11-0.064-0.229-0.117-0.329-0.195c-1.767-1.387-1.892-1.721-0.94-3.756C60.916,64.091,62.672,62.522,65.339,62.168z"/>
<path fill-rule="evenodd" clip-rule="evenodd" fill="#FFFFFF" d="M62.863,17.601c-0.952,1.284-1.438,2.693-1.385,4.322
	c0.065,2.031,0.016,4.065,0.016,6.099c-0.325,0.238-0.713,0.24-1.139,0.366c0-2.519-0.091-4.967,0.032-7.405
	c0.078-1.53,0.83-2.819,2.248-3.603C62.849,17.313,62.9,17.412,62.863,17.601z"/>
<path fill-rule="evenodd" clip-rule="evenodd" fill="#FFFFFF" d="M68.69,16.651c-0.001,1.957-0.044,3.916,0.01,5.872
	c0.057,2.064,0.805,3.867,2.291,5.333c-2.063-0.866-3.163-2.463-3.289-4.65c-0.107-1.855,0.02-3.723-0.057-5.582
	C67.61,16.764,67.845,16.445,68.69,16.651z"/>
<path fill-rule="evenodd" clip-rule="evenodd" fill="#F7F5FA" d="M93.898,33.912c0-0.546,0.027-1.094-0.008-1.637
	c-0.038-0.585,0.151-0.74,0.723-0.561c0.973,0.305,1.729,1.316,1.676,2.328c-0.055,1.023-0.813,1.932-1.754,2.168
	c-0.45,0.113-0.665,0.052-0.643-0.468C93.919,35.133,93.898,34.522,93.898,33.912z"/>
<path fill-rule="evenodd" clip-rule="evenodd" fill="#FCFCFD" d="M58.607,34.062c0,0.449,0.001,0.897-0.001,1.346
	c-0.003,0.995-0.17,1.085-1.087,0.596c-0.856-0.457-1.348-1.372-1.237-2.306c0.11-0.942,0.808-1.73,1.706-1.99
	c0.43-0.125,0.657-0.112,0.627,0.432C58.58,32.778,58.607,33.42,58.607,34.062z"/>
<path fill-rule="evenodd" clip-rule="evenodd" fill="#D8E3EC" d="M62.863,17.601c-0.075-0.074-0.151-0.147-0.228-0.22
	c0.198-0.269,0.49-0.363,0.799-0.424C63.341,17.257,63.118,17.443,62.863,17.601z"/>
<path fill-rule="evenodd" clip-rule="evenodd" fill="#4B4A4B" d="M76.403,48.175c-2.66-0.131-4.708-1.256-6.088-3.532
	c-0.415-0.685-0.503-1.344,0.232-1.865c0.632-0.447,1.26-0.197,1.804,0.667c1.982,3.145,6.039,3.148,8.045,0.008
	c0.567-0.89,1.145-1.104,1.805-0.672c0.637,0.417,0.717,1.08,0.187,1.945C81.015,46.966,78.962,48.036,76.403,48.175z"/>
<path fill-rule="evenodd" clip-rule="evenodd" fill="#4B4A4B" d="M82.774,37.578c-0.001-1.167,0.829-2.013,1.992-2.03
	c1.191-0.018,2.107,0.872,2.103,2.04c-0.005,1.104-0.916,2.041-2.015,2.072C83.734,39.691,82.775,38.731,82.774,37.578z"/>
<path fill-rule="evenodd" clip-rule="evenodd" fill="#4B4A4B" d="M65.714,37.585c-0.001-1.172,0.822-2.018,1.983-2.038
	c1.176-0.02,2.123,0.887,2.124,2.033c0.001,1.123-1.002,2.106-2.115,2.078C66.604,39.63,65.715,38.705,65.714,37.585z"/>
<path fill-rule="evenodd" clip-rule="evenodd" fill="#4B4A4B" d="M82.69,66.569c1.161,0,2.322,0.003,3.483-0.002
	c0.719-0.003,1.207,0.323,1.256,1.047c0.054,0.789-0.467,1.222-1.189,1.233c-2.386,0.038-4.772,0.032-7.159-0.006
	c-0.682-0.011-1.171-0.396-1.148-1.161c0.023-0.806,0.514-1.119,1.275-1.114C80.368,66.574,81.529,66.569,82.69,66.569z"/>
<path fill="#4B4A4B" stroke="#FFFFFF" stroke-miterlimit="10" d="M122.003,93.747c3.716-4.571,5.787-9.833,6.207-15.677
	c0.456-6.355-1.24-12.201-4.727-17.525c-0.271-0.414-0.467-0.84-0.561-1.323c-0.402-2.083-1.546-3.512-3.639-4.088
	c-0.463-0.128-0.701-0.387-0.725-0.887c-0.057-1.184,0.105-2.207,0.942-3.214c1.483-1.784,2.701-3.769,2.851-6.204
	c0.165-1.27,0.323-2.54,0.359-3.824c0.016-0.546-0.07-0.8-0.717-0.785c-1.892,0.046-3.785,0.026-5.678,0.012
	c-0.755-0.006-1.216,0.31-1.363,1.059c-0.11,0.905,0.27,1.375,1.272,1.498c0.801,0.098,1.61,0.033,2.415,0.041
	c1.326,0.013,1.401,0.102,1.128,1.387c-1.197,5.637-6.452,9.833-12.416,9.882c-3.159,0.026-6.319,0.006-9.479,0.004
	c-0.944,0-1.86-0.153-2.736-0.52c-1.808-0.898-2.95-2.313-3.07-4.354c-0.107-1.831-0.011-3.671-0.031-5.506
	c-0.007-0.666,0.253-0.966,0.922-0.872c4.924,0.037,9.849,0.011,14.772,0.01c0.453,0,0.912-0.014,1.314-0.248
	c0.467-0.271,0.864-0.598,0.586-1.232c-0.129-0.933-0.731-1.157-1.584-1.154c-6.289,0.016-12.578,0.009-18.867,0.008
	c-1.531,0-2.898,0.482-4.14,1.369c-1.733,1.238-2.533,3.013-2.942,5.022c0.002,2.611-0.008,5.222,0.014,7.833
	c0.004,0.516-0.082,0.758-0.672,0.919c-1.872,0.512-3.021,1.813-3.362,3.707c-0.114,0.634-0.343,1.141-0.68,1.65
	c-3.969,6.001-5.362,12.579-4.393,19.684c0.123,0.9,0.496,1.531,1.531,1.483c0.934-0.171,1.245-0.619,1.091-1.736
	c-0.348-2.505-0.399-5.01-0.052-7.515c0.431-3.098,1.396-6.021,2.929-8.754c0.307-0.547,0.578-0.718,1.071-0.189
	c0.378,0.405,0.887,0.682,1.412,0.813c0.822,0.204,0.963,0.737,1.063,1.484c0.799,6,3.786,10.591,8.972,13.737
	c2.415,0.604,2.998,2.274,2.628,4.505c-0.005,0.029-0.008,0.04-0.01,0.045c0.003,0.001,0.005,0.01,0.009,0.051
	c0.061,0.699-0.233,0.996-0.953,0.968c-1.127-0.043-2.249,0.012-3.373,0.174c-3.634,0.525-6.085,2.611-7.72,5.776
	c-0.487,0.944-0.431,0.959-1.106,0.136c-0.845-1.028-1.44-2.215-2.178-3.311c-0.569-0.847-0.953-0.95-1.846-0.592
	c-0.755,0.57-0.762,1.234-0.339,2.029c5.515,10.366,18.153,16.21,29.628,13.747c4.783-1.026,9.043-3.063,12.733-6.264
	C118.995,96.575,121.108,94.847,122.003,93.747z M119.551,92.611c-0.754-2.141-1.95-3.846-3.725-5.123
	c-2.169-1.562-4.629-1.973-7.233-1.897c-1.678,0.048-1.681,0.009-1.679-1.646c0.001-1-0.267-2.113,0.089-2.967
	c0.343-0.825,1.587-0.923,2.394-1.422c5.346-3.309,8.35-8.065,8.912-14.337c0.036-0.413,0.131-0.667,0.569-0.728
	c0.996-0.139,1.837-0.61,2.508-1.333c0.394-0.424,0.531-0.237,0.743,0.132c2.703,4.709,3.924,9.745,3.407,15.179
	c-0.462,4.86-2.185,9.22-5.131,13.104C120.155,91.903,119.879,92.213,119.551,92.611z"/>
<path fill-rule="evenodd" clip-rule="evenodd" fill="#39CC74" d="M114.954,41.292c0.059,0.929,0.603,1.28,1.479,1.27
	c0.968-0.012,1.94,0.058,2.902-0.021c0.869-0.07,1.039,0.258,0.881,1.032c-0.765,3.75-2.685,6.716-5.929,8.783
	c-2.057,1.31-4.33,1.963-6.756,1.994c-3.322,0.042-6.646,0.02-9.97,0.005c-0.863-0.004-1.724-0.099-2.492-0.562
	c-1.93-1.214-2.391-3.171-2.559-5.228c-0.141-1.725-0.046-3.461-0.036-5.192c0.002-0.292,0.055-0.577,0.294-0.786
	c5.063-0.01,10.126-0.026,15.189-0.023c0.863,0,1.54-0.187,1.674-1.182c0.507-0.006,1.014-0.011,1.521-0.017
	c0.16,0.059,0.248,0.191,0.344,0.322c0.619,0.84,1.16,0.854,1.829,0.049c0.103-0.124,0.185-0.264,0.338-0.334
	C114.095,41.365,114.524,41.328,114.954,41.292z"/>
<path fill-rule="evenodd" clip-rule="evenodd" fill="#4B4A4B" d="M74.755,83.5c0.63-0.105,1.163,0.05,1.443,0.66
	c0.302,0.656-0.004,1.165-0.501,1.591c-0.701,0.117-1.356,0.083-1.656-0.701C73.76,84.315,74.175,83.86,74.755,83.5z"/>
<path fill-rule="evenodd" clip-rule="evenodd" fill="#FFFFFF" d="M90.498,52.757c1.936,3.011,4.742,4.031,8.133,3.914
	c3.384-0.117,6.773,0.114,10.157-0.119c2.391-0.165,4.581-0.943,6.625-2.169c0.188-0.112,0.379-0.217,0.703-0.402
	c0,0.382,0.004,0.655-0.001,0.927c-0.062,3.482,0.126,6.967-0.117,10.449c-0.464,6.641-5.803,12.701-12.347,13.997
	c-8.955,1.774-17.232-3.748-18.973-12.701c-0.508-2.615-0.2-5.277-0.258-7.917c-0.014-0.644-0.171-1.384,0.089-1.905
	c0.256-0.512,1.099-0.354,1.661-0.57C87.97,55.567,89.406,54.425,90.498,52.757z"/>
<path fill-rule="evenodd" clip-rule="evenodd" fill="#FFFFFF" d="M89.417,88.105c0.387-0.201,0.805-0.208,1.226-0.208
	c6.453,0,12.907-0.018,19.36,0.007c3.56,0.013,6.538,2.392,7.427,5.792c0.181,0.688,0.037,1.119-0.512,1.58
	c-5.021,4.212-10.796,6.337-17.344,6.14c-5.316-0.16-10.159-1.826-14.408-5.09c-0.269-0.367-0.237-0.794-0.226-1.21
	c0.079-2.694,1.324-4.79,3.354-6.471C88.616,88.379,89.017,88.23,89.417,88.105z"/>
<path fill-rule="evenodd" clip-rule="evenodd" fill="#39CC74" d="M87.513,42.894c0.205-0.078,0.404-0.174,0.615-0.23
	c1.068-0.28,1.169-0.205,1.17,0.859c0.002,1.674,0.01,3.348-0.002,5.021c-0.017,2.517-1.354,4.454-3.723,5.415
	c-0.338-0.334-0.276-0.769-0.278-1.177c-0.011-1.825-0.011-3.649-0.003-5.474c0.007-1.398,0.478-2.629,1.35-3.712
	C86.92,43.348,87.267,43.184,87.513,42.894z"/>
<path fill-rule="evenodd" clip-rule="evenodd" fill="#FCFCFD" d="M96.243,81.577c2.699,0.535,5.318,0.604,7.928-0.005
	c0.472-0.11,0.47,0.141,0.469,0.457c-0.001,0.998-0.017,1.996,0.007,2.994c0.011,0.418-0.131,0.551-0.549,0.548
	c-2.446-0.016-4.894-0.012-7.341-0.003c-0.349,0.001-0.528-0.074-0.521-0.477C96.257,83.937,96.243,82.782,96.243,81.577z"/>
<path fill-rule="evenodd" clip-rule="evenodd" fill="#FFFDFD" d="M89.417,88.105c-2.933,1.957-4.432,4.654-4.251,8.221
	c-0.11-0.064-0.229-0.117-0.329-0.195c-1.767-1.387-1.892-1.721-0.94-3.756C84.994,90.028,86.75,88.459,89.417,88.105z"/>
<path fill-rule="evenodd" clip-rule="evenodd" fill="#FFFFFF" d="M86.941,43.538c-0.952,1.284-1.438,2.693-1.385,4.322
	c0.065,2.031,0.016,4.065,0.016,6.099c-0.325,0.238-0.713,0.24-1.139,0.366c0-2.519-0.091-4.967,0.032-7.405
	c0.078-1.53,0.83-2.819,2.248-3.603C86.927,43.25,86.979,43.349,86.941,43.538z"/>
<path fill-rule="evenodd" clip-rule="evenodd" fill="#FFFFFF" d="M92.769,42.588c-0.001,1.957-0.044,3.916,0.01,5.872
	c0.057,2.064,0.805,3.867,2.291,5.333c-2.063-0.866-3.163-2.463-3.289-4.65c-0.107-1.855,0.02-3.723-0.057-5.582
	C91.688,42.701,91.923,42.382,92.769,42.588z"/>
<path fill-rule="evenodd" clip-rule="evenodd" fill="#F7F5FA" d="M117.977,59.849c0-0.546,0.027-1.094-0.008-1.637
	c-0.038-0.585,0.151-0.74,0.723-0.561c0.973,0.305,1.729,1.316,1.676,2.328c-0.055,1.023-0.813,1.932-1.754,2.168
	c-0.45,0.113-0.665,0.052-0.643-0.468C117.997,61.07,117.977,60.459,117.977,59.849z"/>
<path fill-rule="evenodd" clip-rule="evenodd" fill="#FCFCFD" d="M82.686,59.999c0,0.449,0.001,0.897-0.001,1.346
	c-0.003,0.995-0.17,1.085-1.087,0.596c-0.856-0.457-1.348-1.372-1.237-2.306c0.11-0.942,0.808-1.73,1.706-1.99
	c0.43-0.125,0.657-0.112,0.627,0.432C82.658,58.715,82.686,59.357,82.686,59.999z"/>
<path fill-rule="evenodd" clip-rule="evenodd" fill="#D8E3EC" d="M86.941,43.538c-0.075-0.074-0.151-0.147-0.228-0.22
	c0.198-0.269,0.49-0.363,0.799-0.424C87.419,43.194,87.196,43.38,86.941,43.538z"/>
<path fill-rule="evenodd" clip-rule="evenodd" fill="#4B4A4B" d="M100.481,74.112c-2.66-0.131-4.708-1.256-6.088-3.532
	c-0.415-0.685-0.503-1.344,0.232-1.865c0.632-0.447,1.26-0.197,1.804,0.667c1.982,3.145,6.039,3.148,8.045,0.008
	c0.567-0.89,1.145-1.104,1.805-0.672c0.637,0.417,0.717,1.08,0.187,1.945C105.093,72.903,103.04,73.973,100.481,74.112z"/>
<path fill-rule="evenodd" clip-rule="evenodd" fill="#4B4A4B" d="M106.853,63.515c-0.001-1.167,0.829-2.013,1.992-2.03
	c1.191-0.018,2.107,0.872,2.103,2.04c-0.005,1.104-0.916,2.041-2.015,2.072C107.813,65.628,106.854,64.668,106.853,63.515z"/>
<path fill-rule="evenodd" clip-rule="evenodd" fill="#4B4A4B" d="M89.792,63.522c-0.001-1.172,0.822-2.018,1.983-2.038
	c1.176-0.02,2.123,0.887,2.124,2.033c0.001,1.123-1.002,2.106-2.115,2.078C90.683,65.567,89.793,64.642,89.792,63.522z"/>
<path fill-rule="evenodd" clip-rule="evenodd" fill="#4B4A4B" d="M106.769,92.506c1.161,0,2.322,0.003,3.483-0.002
	c0.719-0.003,1.207,0.323,1.256,1.047c0.054,0.789-0.467,1.222-1.189,1.233c-2.386,0.038-4.772,0.032-7.159-0.006
	c-0.682-0.011-1.171-0.396-1.148-1.161c0.023-0.806,0.514-1.119,1.275-1.114C104.446,92.511,105.607,92.506,106.769,92.506z"/>
<path fill="#39CC74" d="M70.156,72.957v9.122c0,5.178-4.197,9.377-9.376,9.377l0,0c-5.18,0-9.378-4.199-9.378-9.377v-9.122H70.156z"
	/>
<rect x="51.402" y="72.957" fill="#FFFFFF" width="18.597" height="8.417"/>
<path fill="#4B4A4B" d="M69.458,72.957c0,2.6,0,5.199,0,7.798c0,5.329-2.947,9.771-8.678,10.002
	c-5.463,0.22-8.678-4.732-8.678-9.626c0-2.725,0-5.448,0-8.173c-0.234,0.233-0.467,0.467-0.7,0.699c6.251,0,12.503,0,18.754,0
	c0.901,0,0.901-1.398,0-1.398c-6.251,0-12.503,0-18.754,0c-0.381,0-0.699,0.318-0.699,0.699c0,3.041,0,6.082,0,9.122
	c0,5.651,4.599,9.855,10.077,10.076c5.354,0.216,9.434-4.304,10.044-9.307c0.392-3.216,0.031-6.653,0.031-9.891
	C70.855,72.055,69.458,72.055,69.458,72.957z"/>
<path fill="#4B4A4B" d="M60.08,91.457c0,2.243,0,4.484,0,6.727c0,0.902,1.398,0.902,1.398,0c0-2.243,0-4.484,0-6.727
	C61.479,90.554,60.08,90.554,60.08,91.457L60.08,91.457z"/>
<path fill="#4B4A4B" d="M56.05,98.883c3.153,0,6.307,0,9.459,0c0.901,0,0.901-1.398,0-1.398c-3.152,0-6.306,0-9.459,0
	C55.148,97.485,55.148,98.883,56.05,98.883L56.05,98.883z"/>
<path fill="#4B4A4B" d="M51.402,82.074c6.251,0,12.503,0,18.754,0c0.901,0,0.901-1.398,0-1.398c-6.251,0-12.503,0-18.754,0
	C50.501,80.676,50.501,82.074,51.402,82.074L51.402,82.074z"/>
<circle fill="#FFFFFF" cx="57.869" cy="80.864" r="2.657"/>
<path fill="#4B4A4B" d="M59.825,80.864c-0.136,2.524-3.778,2.524-3.914,0C55.774,78.338,59.69,78.352,59.825,80.864
	c0.048,0.897,1.448,0.902,1.399,0c-0.102-1.898-1.458-3.254-3.356-3.356c-1.894-0.102-3.263,1.611-3.355,3.356
	c-0.102,1.894,1.611,3.262,3.355,3.356c1.895,0.102,3.262-1.612,3.356-3.356C61.273,79.962,59.873,79.966,59.825,80.864z"/>
<circle fill="#FFFFFF" cx="64.292" cy="85.152" r="1.631"/>
<path fill="#4B4A4B" d="M65.573,85.152c-0.088,1.652-2.474,1.652-2.563,0C62.922,83.499,65.485,83.507,65.573,85.152
	c0.024,0.448,0.723,0.45,0.7,0c-0.062-1.121-0.86-1.921-1.981-1.981c-1.117-0.061-1.925,0.951-1.98,1.981
	c-0.06,1.118,0.952,1.925,1.98,1.98c1.118,0.061,1.926-0.951,1.981-1.98C66.296,84.701,65.598,84.704,65.573,85.152z"/>
<circle fill="#FFFFFF" cx="58.8" cy="87.207" r="0.932"/>
<path fill="#4B4A4B" d="M59.382,87.207c-0.039,0.751-1.123,0.751-1.163,0C58.177,86.456,59.343,86.459,59.382,87.207
	c0.025,0.449,0.724,0.451,0.701,0c-0.04-0.724-0.559-1.242-1.282-1.282c-0.724-0.038-1.246,0.617-1.281,1.282
	c-0.04,0.723,0.615,1.247,1.281,1.282c0.723,0.039,1.245-0.617,1.282-1.282C60.105,86.756,59.407,86.758,59.382,87.207z"/>
</svg>
