<?xml version="1.0" encoding="utf-8"?>
<!-- Generator: Adobe Illustrator 16.0.2, SVG Export Plug-In . SVG Version: 6.00 Build 0)  -->
<!DOCTYPE svg PUBLIC "-//W3C//DTD SVG 1.1//EN" "http://www.w3.org/Graphics/SVG/1.1/DTD/svg11.dtd">
<svg version="1.1" id="Layer_1" xmlns="http://www.w3.org/2000/svg" xmlns:xlink="http://www.w3.org/1999/xlink" x="0px" y="0px"
	 width="1106.212px" height="769.448px" viewBox="0 0 1106.212 769.448" enable-background="new 0 0 1106.212 769.448"
	 xml:space="preserve">
<g>
	<g>
		<linearGradient id="SVGID_1_" gradientUnits="userSpaceOnUse" x1="648.0488" y1="684.3135" x2="494.0488" y2="-35.6865">
			<stop  offset="0" style="stop-color:#D3FFCF"/>
			<stop  offset="1" style="stop-color:#1DFFF2"/>
		</linearGradient>
		<path fill="url(#SVGID_1_)" d="M814.746,406.842c-15.932-13.723-35.539-27.309-57.936-39.211
			c-44.355-24.641-102.82-37.008-178.412-5.744c-37.043,14.223-69.236,27.393-93.99,35.742
			c-25.047,8.895-42.648,12.971-57.178,21.58c-14.428,8.412-25.773,21.342-36.02,43.645c-9.764,21.389-18.43,52.154-16.221,74.965
			c0.025,26.93,11.967,41.381,27.59,55.684c15.932,13.727,35.539,27.305,57.938,39.213c44.355,24.639,102.043,35.059,178.41,5.736
			c37.041-14.223,69.234-27.389,93.99-35.736c25.047-8.895,42.65-12.975,57.178-21.58c14.428-8.412,25.773-21.34,36.02-43.646
			c9.76-21.389,18.428-52.154,16.223-74.965C842.309,435.592,830.367,421.141,814.746,406.842z"/>
		<linearGradient id="SVGID_2_" gradientUnits="userSpaceOnUse" x1="618.3955" y1="690.6572" x2="464.3955" y2="-29.3428">
			<stop  offset="0" style="stop-color:#D3FFCF"/>
			<stop  offset="1" style="stop-color:#1DFFF2"/>
		</linearGradient>
		<path fill="url(#SVGID_2_)" d="M784.143,327.309l-2.5-1.436c-44.447-25.52-94.824-54.447-160.541-54.447
			c-16.658,0-33.816,1.91-50.994,5.678c-33.738,5.811-68.07,17.652-98.359,28.102c-10.408,3.59-20.238,6.982-29.527,9.957
			c-20.1,6.928-37.332,11.832-52.533,16.158c-12.906,3.672-24.051,6.844-34.023,10.422c-21.125,7.633-37.203,16.936-52.063,39.689
			c-15.113,22.957-26.852,57.215-30.629,89.404c-5.074,34.244,0.826,61.227,18.57,84.914c16.068,21.453,40.621,38.482,66.623,56.516
			l2.5,1.434c44.447,25.523,94.826,54.449,160.539,54.449c16.658,0,33.816-1.91,50.994-5.676
			c33.748-5.813,68.09-17.66,98.387-28.113c10.4-3.588,20.223-6.975,29.504-9.949c20.105-6.93,37.338-11.832,52.543-16.158
			c12.9-3.67,24.041-6.84,34.01-10.416c21.125-7.635,37.201-16.939,52.064-39.695c15.113-22.949,26.85-57.209,30.629-89.4
			c5.074-34.244-0.826-61.227-18.57-84.914C834.699,362.379,810.146,345.346,784.143,327.309z M869.088,468.707
			c-3.775,32.16-15.496,66.377-30.59,89.297c-14.824,22.697-30.865,31.979-51.939,39.598c-9.961,3.572-21.1,6.74-33.994,10.41
			c-15.207,4.326-32.443,9.23-52.555,16.162c-9.281,2.973-19.105,6.361-29.506,9.949c-30.289,10.449-64.619,22.293-98.354,28.104
			c-17.164,3.764-34.305,5.672-50.945,5.672c-65.646,0-115.994-28.908-160.414-54.416l-2.49-1.428
			c-53.705-37.248-96.123-66.666-85.08-141.186c3.773-32.156,15.496-66.375,30.59-89.301c14.82-22.695,30.861-31.977,51.938-39.592
			c9.965-3.574,21.107-6.744,34.008-10.416c15.205-4.328,32.439-9.232,52.545-16.162c9.287-2.975,19.119-6.365,29.529-9.957
			c30.279-10.445,64.602-22.285,98.326-28.094c17.164-3.764,34.305-5.672,50.945-5.672c65.65,0,115.996,28.91,160.416,54.414
			l2.49,1.43C837.711,364.771,880.129,394.195,869.088,468.707z"/>
		<linearGradient id="SVGID_3_" gradientUnits="userSpaceOnUse" x1="630.6406" y1="688.0391" x2="476.64" y2="-31.964">
			<stop  offset="0" style="stop-color:#D3FFCF"/>
			<stop  offset="1" style="stop-color:#1DFFF2"/>
		</linearGradient>
		<path fill="url(#SVGID_3_)" d="M841.105,275.063c-5.865-2.676-11.932-5.441-18.006-8.338c-6.17-2.518-12.268-5.074-18.725-7.781
			c-45.145-18.924-96.311-40.373-158.123-40.373c-29.709,0-59.137,4.77-89.953,14.578c-34.98,9.199-71.02,24.006-102.818,37.068
			c-19.396,7.969-37.719,15.496-53.943,21.027c-38.301,14.316-66.148,18.15-86.484,20.951c-3.129,0.43-6.084,0.838-8.922,1.258
			c-21.521,3.322-35.664,7.033-50.553,30.506c-12.848,20.023-28.035,60.037-33.004,104.291
			c-4.969,41.51,2.602,76.299,22.498,103.396c13.859,19.602,33.756,35.021,54.822,51.346c7.684,5.955,15.627,12.111,23.596,18.701
			c4.707,3.549,9.346,7.107,14.26,10.875c46.359,35.547,98.904,75.836,171.484,75.836c18.395,0,37.609-2.631,57.1-7.814
			c37.99-7.684,77.623-23.596,112.59-37.637c14.918-5.99,29.01-11.648,41.969-16.277c27.713-10.811,49.809-16.916,69.305-22.301
			c11.697-3.232,21.799-6.021,31.117-9.301c24.512-8.699,42.576-20.141,62.369-52.875c20.754-34.098,39.213-85.416,47.027-130.74
			c8.818-49.244,2.717-86.818-18.129-111.674C894.225,299.283,868.424,287.52,841.105,275.063z M928.219,431.373
			c-7.805,45.268-26.238,96.52-46.963,130.566c-19.717,32.609-37.703,44.002-62.109,52.664c-9.301,3.271-19.395,6.061-31.084,9.289
			c-19.506,5.389-41.615,11.496-69.346,22.314c-12.961,4.631-27.057,10.291-41.98,16.283
			c-34.947,14.031-74.557,29.936-112.518,37.613c-19.461,5.176-38.635,7.801-56.984,7.801c-72.41,0-124.885-40.234-171.182-75.732
			c-4.697-3.602-9.553-7.326-14.254-10.869c-7.965-6.59-15.912-12.748-23.598-18.705c-21.035-16.301-40.904-31.699-54.723-51.244
			c-19.822-26.994-27.361-61.664-22.408-103.047c4.961-44.176,20.113-84.104,32.928-104.08
			c14.777-23.295,28.828-26.979,50.207-30.279c2.834-0.42,5.789-0.826,8.916-1.258c20.357-2.803,48.238-6.641,86.584-20.975
			c16.232-5.533,34.561-13.063,53.967-21.035c31.781-13.057,67.805-27.857,102.766-37.051c30.779-9.797,60.158-14.559,89.814-14.559
			c61.711,0,112.828,21.428,157.93,40.334c6.457,2.707,12.557,5.264,18.717,7.777c6.063,2.893,12.131,5.66,18,8.336
			c27.262,12.43,53.01,24.172,69.297,44.584C930.945,344.844,937.01,382.279,928.219,431.373z"/>
		<linearGradient id="SVGID_4_" gradientUnits="userSpaceOnUse" x1="627.3623" y1="688.7393" x2="473.3626" y2="-31.2594">
			<stop  offset="0" style="stop-color:#D3FFCF"/>
			<stop  offset="1" style="stop-color:#1DFFF2"/>
		</linearGradient>
		<path fill="url(#SVGID_4_)" d="M889.496,231.588c-6.959-3.158-14.152-6.422-21.369-9.836c-6.295-2.574-12.512-5.164-19.096-7.906
			c-54.902-22.871-117.133-48.795-192.898-48.795c-36.83,0-73.348,5.918-111.617,18.086c-41.826,11-84.998,28.451-123.088,43.848
			c-24.414,9.869-47.475,19.191-67.865,25.943c-49.857,18.111-85.072,21.672-110.785,24.271c-2.021,0.203-3.986,0.402-5.904,0.602
			c-26.582,2.945-43.756,6.039-61.139,31.443c-15.07,21.666-32.768,66.41-38.328,117.525c-5.508,47.557,3.807,87.738,27.686,119.422
			c16.803,23.119,40.93,41.539,66.475,61.041c9.039,6.898,18.385,14.033,27.793,21.656c9.369,6.52,18.615,13.354,28.404,20.588
			c29.525,21.816,60.055,44.377,95.924,59.584c30.955,13.445,63.959,20.262,98.098,20.262c23.588,0,48.355-3.244,73.604-9.639
			c45.43-9.395,92.854-28.139,134.697-44.678c19.15-7.57,37.24-14.721,53.818-20.48c36.643-13.904,66.432-21.322,90.369-27.281
			c12.029-2.994,22.42-5.582,32.184-8.551c30.08-9.23,51.967-21.58,74.832-57.381c24.254-37.627,45.654-95.752,54.523-148.078
			c9.936-56.434,2.27-99.746-22.779-128.725C953.303,260.545,922.309,246.479,889.496,231.588z M995.074,413.107
			c-8.854,52.234-30.213,110.25-54.416,147.799c-22.742,35.609-44.508,47.891-74.42,57.07c-9.744,2.963-20.125,5.547-32.146,8.541
			c-23.955,5.963-53.77,13.385-90.443,27.303c-16.582,5.762-34.68,12.914-53.838,20.488c-41.814,16.527-89.209,35.26-134.59,44.645
			c-25.203,6.383-49.91,9.619-73.436,9.619c-34.035,0-66.939-6.797-97.801-20.201c-35.791-15.174-66.285-37.707-95.773-59.498
			c-9.795-7.238-19.045-14.074-28.4-20.584c-9.396-7.611-18.746-14.75-27.789-21.652c-25.5-19.467-49.584-37.855-66.328-60.891
			c-23.762-31.529-33.027-71.531-27.541-118.895c5.547-50.984,23.182-95.59,38.199-117.182
			c17.199-25.137,34.234-28.203,60.602-31.123c1.914-0.199,3.881-0.398,5.898-0.602c25.752-2.604,61.021-6.17,110.957-24.309
			c20.402-6.758,43.475-16.084,67.9-25.957c38.068-15.389,81.217-32.828,123.016-43.822c38.215-12.15,74.656-18.057,111.408-18.057
			c75.617,0,137.771,25.893,192.611,48.738c6.584,2.742,12.801,5.332,19.082,7.898c7.201,3.408,14.398,6.674,21.359,9.834
			c32.732,14.854,63.648,28.883,83.275,52.721C997.359,313.801,1004.969,356.904,995.074,413.107z"/>
		<linearGradient id="SVGID_5_" gradientUnits="userSpaceOnUse" x1="630.917" y1="687.9785" x2="476.917" y2="-32.0215">
			<stop  offset="0" style="stop-color:#D3FFCF"/>
			<stop  offset="1" style="stop-color:#1DFFF2"/>
		</linearGradient>
		<path fill="url(#SVGID_5_)" d="M918.436,165.941c-7.895-3.605-16.057-7.334-24.23-11.242c-8.701-3.551-17.303-7.166-26.408-10.992
			c-60.072-25.248-128.16-53.865-210.213-53.865c-39.277,0-78.168,6.307-118.871,19.27c-46.824,12.318-95.027,32.236-137.557,49.809
			c-25.496,10.535-49.578,20.484-70.912,27.834c-49.641,18.744-86.123,24.246-112.762,28.262c-4.881,0.736-9.492,1.432-13.871,2.156
			c-27.668,4.729-47.32,10.281-67.576,43.061c-17.352,27.811-37.904,82.725-44.711,142.717
			c-6.835,56.469,3.211,103.668,29.854,140.283c18.479,26.369,44.977,47.014,73.029,68.871
			c10.365,8.074,21.082,16.424,31.836,25.391c11.348,8.094,22.516,16.648,34.34,25.707c31.467,24.109,64.006,49.039,101.818,66.318
			c35.207,16.457,72.66,24.801,111.318,24.801c24.252,0,49.66-3.264,75.5-9.699c50.883-10.207,103.934-31.631,150.738-50.533
			c19.441-7.852,37.807-15.268,54.717-21.373c35.654-14.045,64.334-22.25,89.637-29.49c16.5-4.721,30.75-8.797,43.807-13.635
			c31.742-11.834,56.791-28.23,83.553-73.346c28.061-47.023,53.074-117.117,63.725-178.568
			c12.066-66.996,4.027-118.012-23.883-151.619C989.451,198.375,954.955,182.621,918.436,165.941z M1034.211,377.502
			c-10.633,61.342-35.596,131.303-63.6,178.232c-26.613,44.861-51.506,61.16-83.043,72.918c-13.02,4.824-27.252,8.896-43.732,13.611
			c-25.324,7.246-54.027,15.459-89.715,29.516c-16.914,6.107-35.287,13.527-54.738,21.381
			c-46.764,18.887-99.77,40.291-150.582,50.486c-25.783,6.42-51.111,9.674-75.281,9.674c-38.51,0-75.82-8.313-110.898-24.709
			c-37.715-17.234-70.207-42.129-101.631-66.203c-11.83-9.064-23.004-17.625-34.336-25.705
			c-10.738-8.953-21.461-17.309-31.832-25.389c-27.994-21.809-54.434-42.41-72.832-68.664
			c-26.493-36.41-36.477-83.371-29.672-139.584c6.787-59.84,27.273-114.59,44.566-142.307c20.037-32.424,39.496-37.92,66.893-42.602
			c4.369-0.723,8.977-1.418,13.855-2.154c26.682-4.023,63.225-9.533,112.951-28.311c21.35-7.354,45.445-17.309,70.955-27.85
			c42.5-17.561,90.67-37.465,137.451-49.771c40.629-12.939,79.422-19.23,118.594-19.23c81.852,0,149.84,28.576,209.826,53.787
			c9.107,3.828,17.711,7.443,26.389,10.984c8.158,3.9,16.324,7.631,24.221,11.236c36.408,16.629,70.797,32.336,92.516,59.836
			C1038.256,260.064,1046.223,310.807,1034.211,377.502z"/>
		<linearGradient id="SVGID_6_" gradientUnits="userSpaceOnUse" x1="626.2646" y1="688.9727" x2="472.2648" y2="-31.0264">
			<stop  offset="0" style="stop-color:#D3FFCF"/>
			<stop  offset="1" style="stop-color:#1DFFF2"/>
		</linearGradient>
		<path fill="url(#SVGID_6_)" d="M1067.311,157.721c-25.348-32.096-65.293-50.34-107.584-69.654
			c-9.131-4.17-18.57-8.48-28.049-13.012c-10.064-4.107-20.016-8.289-30.551-12.719C831.609,33.117,752.818,0,657.826,0
			C612.35,0,567.32,7.301,520.215,22.307c-54.203,14.256-109.986,37.307-159.203,57.645c-29.471,12.18-57.309,23.682-81.975,32.18
			c-57.381,21.666-99.559,28.023-130.355,32.666c-5.645,0.852-10.977,1.656-16.045,2.494c-32.113,5.486-54.924,11.932-78.455,50.004
			c-20.091,32.199-43.893,95.787-51.775,165.252c-7.918,65.432,3.729,120.129,34.607,162.555
			c21.408,30.555,52.084,54.453,84.561,79.758c11.986,9.338,24.379,18.992,36.836,29.377c13.111,9.354,26.018,19.242,39.682,29.711
			c36.426,27.906,74.09,56.762,117.879,76.777c40.779,19.059,84.162,28.725,128.938,28.725c28.086,0,57.512-3.781,87.416-11.229
			c58.9-11.814,120.291-36.607,174.453-58.48c22.48-9.078,43.713-17.652,63.273-24.715c41.232-16.242,74.404-25.73,103.67-34.104
			c19.084-5.461,35.564-10.176,50.678-15.773c36.799-13.725,65.838-32.734,96.857-85.02
			c32.486-54.443,61.439-135.578,73.762-206.697C1108.998,255.813,1099.672,196.689,1067.311,157.721z M1093.047,333.084
			c-12.285,70.904-41.139,151.771-73.51,206.021c-30.721,51.783-59.445,70.598-95.836,84.168
			c-15.039,5.572-31.486,10.277-50.531,15.725c-29.309,8.385-62.529,17.889-103.826,34.156
			c-19.568,7.064-40.818,15.646-63.314,24.73c-54.082,21.842-115.381,46.596-174.143,58.385
			c-29.791,7.418-59.055,11.18-86.979,11.18c-44.48,0-87.578-9.602-128.1-28.541c-43.59-19.924-81.164-48.711-117.5-76.549
			c-13.678-10.48-26.598-20.379-39.676-29.705c-12.426-10.359-24.832-20.025-36.828-29.373
			c-32.355-25.209-62.917-49.02-84.164-79.344C8.059,481.92-3.464,427.701,4.393,362.779c7.849-69.16,31.514-132.416,51.488-164.43
			c23.092-37.361,45.518-43.691,77.088-49.088c5.049-0.834,10.373-1.637,16.012-2.486c30.885-4.656,73.184-11.033,130.734-32.764
			c24.697-8.508,52.561-20.021,82.061-32.211c49.158-20.314,104.875-43.338,158.996-57.574C567.727,9.271,612.559,2,657.826,2
			c94.588,0,173.184,33.035,242.527,62.18c10.539,4.432,20.494,8.615,30.516,12.703c9.439,4.514,18.889,8.83,28.027,13.004
			c42.064,19.211,81.795,37.355,106.859,69.094C1097.738,197.492,1106.922,256.066,1093.047,333.084z"/>
	</g>
	<path fill="#41FFEF" d="M164.111,154.021c-7.299,13.771-24.381,19.02-38.152,11.719c-13.771-7.299-19.016-24.381-11.717-38.15
		c7.297-13.77,24.379-19.016,38.15-11.719C166.162,123.17,171.41,140.252,164.111,154.021"/>
	<path fill="#51FFEA" d="M238.85,209.098c1.912-3.605,6.385-4.98,9.992-3.066c3.605,1.91,4.98,6.387,3.068,9.99
		c-1.914,3.607-6.385,4.982-9.992,3.07C238.311,217.178,236.936,212.707,238.85,209.098"/>
	<linearGradient id="SVGID_7_" gradientUnits="userSpaceOnUse" x1="158.2109" y1="392.2979" x2="136.8774" y2="332.2979">
		<stop  offset="0" style="stop-color:#D3FFCF"/>
		<stop  offset="1" style="stop-color:#1DFFF2"/>
	</linearGradient>
	<path fill="url(#SVGID_7_)" d="M135.648,359.367c3.914-7.385,13.078-10.201,20.467-6.283c7.387,3.916,10.199,13.078,6.285,20.467
		c-3.916,7.387-13.078,10.203-20.465,6.287C134.547,375.922,131.732,366.76,135.648,359.367"/>
	<linearGradient id="SVGID_8_" gradientUnits="userSpaceOnUse" x1="271.2373" y1="352.2412" x2="250.5694" y2="304.906">
		<stop  offset="0" style="stop-color:#D3FFCF"/>
		<stop  offset="1" style="stop-color:#1DFFF2"/>
	</linearGradient>
	<path fill="url(#SVGID_8_)" d="M253.949,329.293c2.768-5.223,9.248-7.213,14.471-4.443c5.225,2.768,7.215,9.248,4.447,14.471
		c-2.77,5.225-9.25,7.215-14.473,4.445C253.17,340.998,251.18,334.518,253.949,329.293"/>
	<linearGradient id="SVGID_9_" gradientUnits="userSpaceOnUse" x1="284.8418" y1="535.4639" x2="251.5114" y2="478.8031">
		<stop  offset="0" style="stop-color:#D3FFCF"/>
		<stop  offset="1" style="stop-color:#1DFFF2"/>
	</linearGradient>
	<path fill="url(#SVGID_9_)" d="M269.576,514.986c1.369-2.584,4.576-3.568,7.162-2.199c2.584,1.373,3.568,4.576,2.199,7.16
		c-1.369,2.586-4.576,3.574-7.162,2.201C269.189,520.779,268.205,517.574,269.576,514.986"/>
	
		<rect x="32.782" y="-78.427" transform="matrix(-0.8836 -0.4683 0.4683 -0.8836 849.5519 935.8318)" fill="none" width="1016.668" height="881.457"/>
</g>
<g opacity="0.4">
	<defs>
		<rect id="SVGID_11_" x="1178" y="276.028" opacity="0.4" width="571.899" height="292.061"/>
	</defs>
	<clipPath id="SVGID_10_">
		<use xlink:href="#SVGID_11_"  overflow="visible"/>
	</clipPath>
	<g clip-path="url(#SVGID_10_)">
		<g>
			<linearGradient id="SVGID_12_" gradientUnits="userSpaceOnUse" x1="1525.459" y1="786.9951" x2="1414.6565" y2="268.9576">
				<stop  offset="0" style="stop-color:#D3FFCF"/>
				<stop  offset="1" style="stop-color:#1DFFF2"/>
			</linearGradient>
			<path fill="url(#SVGID_12_)" d="M1842.79,404.761c-18.238-23.094-46.978-36.219-77.406-50.116
				c-6.569-3.001-13.361-6.104-20.182-9.363c-7.24-2.954-14.4-5.963-21.98-9.15c-50.018-21.021-106.708-44.851-175.055-44.851
				c-32.72,0-65.119,5.254-99.011,16.051c-38.999,10.256-79.135,26.842-114.546,41.475c-21.204,8.763-41.233,17.039-58.981,23.153
				c-41.284,15.588-71.632,20.163-93.79,23.503c-4.062,0.612-7.897,1.19-11.544,1.794c-23.104,3.948-39.519,8.585-56.448,35.978
				c-14.455,23.168-31.58,68.92-37.252,118.898c-5.697,47.077,2.683,86.432,24.9,116.957c15.402,21.984,37.475,39.18,60.841,57.386
				c8.624,6.719,17.54,13.665,26.503,21.138c9.434,6.729,18.72,13.844,28.551,21.375c26.208,20.079,53.309,40.842,84.814,55.242
				c29.34,13.713,60.554,20.667,92.77,20.667c20.208,0,41.38-2.721,62.895-8.078c42.38-8.501,86.549-26.339,125.519-42.077
				c16.175-6.532,31.451-12.7,45.525-17.781c29.666-11.687,53.534-18.514,74.591-24.539c13.731-3.928,25.588-7.32,36.463-11.348
				c26.476-9.875,47.37-23.553,69.688-61.172c23.374-39.172,44.205-97.547,53.072-148.718
				C1872.783,475.337,1866.074,432.798,1842.79,404.761z M1861.308,530.934c-8.84,51.016-29.6,109.199-52.892,148.231
				c-22.103,37.257-42.77,50.795-68.953,60.561c-10.82,4.008-22.653,7.393-36.356,11.313c-21.086,6.032-44.99,12.869-74.702,24.573
				c-14.08,5.084-29.37,11.258-45.556,17.794c-38.911,15.714-83.016,33.526-125.294,42.01c-21.436,5.335-42.49,8.042-62.581,8.042
				c-32.003,0-63.012-6.908-92.168-20.534c-31.362-14.335-58.396-35.048-84.541-55.078c-9.84-7.54-19.137-14.662-28.547-21.373
				c-8.939-7.453-17.865-14.407-26.497-21.134c-23.279-18.137-45.269-35.268-60.555-57.087
				c-22.005-30.231-30.295-69.241-24.643-115.953c5.647-49.761,22.675-95.272,37.046-118.307
				c16.615-26.881,32.75-31.435,55.465-35.318c3.633-0.6,7.463-1.178,11.521-1.79c22.222-3.349,52.655-7.937,94.063-23.571
				c17.769-6.122,37.815-14.406,59.041-23.177c35.369-14.616,75.458-31.183,114.396-41.424
				c33.785-10.761,66.041-15.992,98.611-15.992c68.056,0,124.604,23.768,174.498,44.738c7.582,3.188,14.745,6.198,21.955,9.14
				c6.793,3.248,13.59,6.352,20.166,9.356c30.265,13.822,58.852,26.876,76.885,49.712
				C1864.683,433.376,1871.29,475.52,1861.308,530.934z"/>
		</g>
		
			<rect x="1098.449" y="234.853" transform="matrix(-0.8836 -0.4683 0.4683 -0.8836 2499.4072 1725.349)" fill="none" width="731.49" height="634.205"/>
	</g>
</g>
</svg>
