<?xml version="1.0" encoding="utf-8"?>
<!-- Generator: Adobe Illustrator 16.0.2, SVG Export Plug-In . SVG Version: 6.00 Build 0)  -->
<!DOCTYPE svg PUBLIC "-//W3C//DTD SVG 1.1//EN" "http://www.w3.org/Graphics/SVG/1.1/DTD/svg11.dtd">
<svg version="1.1" id="Layer_1" xmlns="http://www.w3.org/2000/svg" xmlns:xlink="http://www.w3.org/1999/xlink" x="0px" y="0px"
	 width="571.899px" height="292.061px" viewBox="0 0 571.899 292.061" enable-background="new 0 0 571.899 292.061"
	 xml:space="preserve">
<g>
	
		<rect x="-1145.218" y="-354.455" transform="matrix(-0.8836 -0.4683 0.4683 -0.8836 -1240.012 -135.7635)" fill="none" width="1016.668" height="881.457"/>
</g>
<g opacity="0.4">
	<defs>
		<rect id="SVGID_11_" opacity="0.4" width="571.899" height="292.061"/>
	</defs>
	<clipPath id="SVGID_1_">
		<use xlink:href="#SVGID_11_"  overflow="visible"/>
	</clipPath>
	<g clip-path="url(#SVGID_1_)">
		<g>
			<linearGradient id="SVGID_2_" gradientUnits="userSpaceOnUse" x1="363.1328" y1="507.6143" x2="252.3301" y2="-10.4246">
				<stop  offset="0" style="stop-color:#D3FFCF"/>
				<stop  offset="1" style="stop-color:#1DFFF2"/>
			</linearGradient>
			<path fill="url(#SVGID_2_)" d="M483.07,307.975c-11.463-9.875-25.57-19.648-41.686-28.213
				c-31.912-17.729-73.978-26.627-128.365-4.133c-26.652,10.232-49.815,19.709-67.626,25.716
				c-18.021,6.4-30.685,9.334-41.141,15.526c-10.38,6.054-18.542,15.356-25.914,31.402c-7.025,15.39-13.261,37.525-11.672,53.938
				c0.019,19.375,8.611,29.772,19.852,40.064c11.463,9.876,25.57,19.646,41.686,28.213c31.915,17.727,73.42,25.225,128.367,4.127
				c26.649-10.232,49.812-19.706,67.624-25.713c18.021-6.398,30.688-9.332,41.139-15.525c10.382-6.053,18.545-15.354,25.917-31.402
				c7.021-15.391,13.259-37.526,11.672-53.938C502.902,328.658,494.311,318.262,483.07,307.975z"/>
			<linearGradient id="SVGID_3_" gradientUnits="userSpaceOnUse" x1="341.7969" y1="512.1787" x2="230.994" y2="-5.8606">
				<stop  offset="0" style="stop-color:#D3FFCF"/>
				<stop  offset="1" style="stop-color:#1DFFF2"/>
			</linearGradient>
			<path fill="url(#SVGID_3_)" d="M461.051,250.749l-1.798-1.032c-31.98-18.361-68.227-39.173-115.509-39.173
				c-11.986,0-24.331,1.374-36.689,4.082c-24.274,4.183-48.978,12.702-70.771,20.222c-7.488,2.582-14.561,5.021-21.245,7.162
				c-14.461,4.986-26.859,8.514-37.798,11.626c-9.285,2.643-17.302,4.925-24.479,7.499c-15.2,5.491-26.768,12.184-37.459,28.557
				c-10.873,16.518-19.32,41.166-22.037,64.327c-3.652,24.637,0.594,44.051,13.361,61.095
				c11.561,15.434,29.227,27.688,47.935,40.662l1.8,1.032c31.979,18.362,68.226,39.175,115.506,39.175
				c11.986,0,24.331-1.373,36.691-4.083c24.281-4.183,48.99-12.707,70.788-20.228c7.483-2.581,14.551-5.02,21.228-7.158
				c14.467-4.986,26.865-8.515,37.805-11.626c9.282-2.642,17.299-4.923,24.471-7.493c15.2-5.494,26.766-12.19,37.459-28.563
				c10.875-16.512,19.319-41.161,22.039-64.322c3.649-24.639-0.595-44.053-13.362-61.096
				C497.427,275.982,479.761,263.729,461.051,250.749z M522.168,352.484c-2.715,23.14-11.147,47.758-22.008,64.25
				c-10.667,16.331-22.207,23.009-37.37,28.491c-7.167,2.569-15.182,4.849-24.459,7.489c-10.941,3.113-23.344,6.641-37.813,11.628
				c-6.679,2.14-13.747,4.577-21.229,7.159c-21.793,7.518-46.494,16.04-70.766,20.221c-12.35,2.707-24.683,4.08-36.655,4.08
				c-47.231,0-83.457-20.8-115.417-39.15l-1.792-1.029c-38.641-26.799-69.16-47.965-61.215-101.583
				c2.715-23.135,11.149-47.756,22.01-64.25c10.662-16.331,22.205-23.007,37.369-28.485c7.169-2.572,15.187-4.854,24.468-7.496
				c10.94-3.113,23.341-6.642,37.807-11.627c6.683-2.141,13.757-4.581,21.245-7.165c21.787-7.517,46.48-16.034,70.746-20.213
				c12.351-2.708,24.683-4.082,36.655-4.082c47.234,0,83.458,20.801,115.418,39.151l1.792,1.028
				C499.594,277.705,530.113,298.875,522.168,352.484z"/>
			<linearGradient id="SVGID_4_" gradientUnits="userSpaceOnUse" x1="350.6074" y1="510.2949" x2="239.8045" y2="-7.7448">
				<stop  offset="0" style="stop-color:#D3FFCF"/>
				<stop  offset="1" style="stop-color:#1DFFF2"/>
			</linearGradient>
			<path fill="url(#SVGID_4_)" d="M502.035,213.158c-4.22-1.924-8.584-3.916-12.954-5.997c-4.439-1.813-8.827-3.652-13.472-5.602
				c-32.481-13.615-69.296-29.047-113.77-29.047c-21.376,0-42.549,3.433-64.722,10.488c-25.168,6.618-51.099,17.272-73.977,26.672
				c-13.956,5.733-27.14,11.149-38.813,15.13c-27.559,10.299-47.594,13.059-62.225,15.072c-2.252,0.311-4.379,0.604-6.42,0.906
				c-15.484,2.391-25.66,5.061-36.372,21.947c-9.245,14.407-20.172,43.198-23.747,75.038c-3.574,29.867,1.872,54.897,16.188,74.394
				c9.971,14.104,24.286,25.197,39.442,36.944c5.529,4.284,11.244,8.714,16.979,13.454c3.387,2.555,6.724,5.114,10.26,7.823
				c33.355,25.577,71.161,54.565,123.383,54.565c13.234,0,27.06-1.893,41.082-5.623c27.334-5.528,55.85-16.977,81.009-27.078
				c10.732-4.311,20.872-8.381,30.195-11.713c19.939-7.778,35.839-12.17,49.864-16.045c8.417-2.326,15.685-4.333,22.39-6.693
				c17.636-6.258,30.634-14.49,44.874-38.043c14.932-24.532,28.214-61.455,33.837-94.067c6.344-35.43,1.954-62.465-13.044-80.348
				C540.255,230.586,521.692,222.12,502.035,213.158z M564.714,325.624c-5.615,32.57-18.879,69.444-33.791,93.942
				c-14.186,23.461-27.127,31.66-44.687,37.891c-6.691,2.354-13.953,4.361-22.365,6.685c-14.033,3.878-29.942,8.271-49.895,16.054
				c-9.324,3.332-19.467,7.405-30.203,11.717c-25.145,10.096-53.646,21.538-80.957,27.061c-14.001,3.727-27.798,5.615-40.999,5.615
				c-52.1,0-89.855-28.949-123.166-54.49c-3.379-2.592-6.871-5.272-10.255-7.82c-5.731-4.742-11.448-9.172-16.979-13.458
				c-15.135-11.729-29.43-22.807-39.372-36.87c-14.262-19.422-19.688-44.367-16.123-74.142
				c3.568-31.784,14.471-60.513,23.691-74.884c10.633-16.761,20.741-19.412,36.125-21.788c2.037-0.302,4.164-0.594,6.414-0.904
				c14.646-2.016,34.707-4.778,62.296-15.091c11.68-3.981,24.867-9.399,38.83-15.135c22.866-9.395,48.786-20.044,73.938-26.658
				c22.146-7.048,43.285-10.476,64.622-10.476c44.4,0,81.179,15.418,113.63,29.021c4.646,1.948,9.035,3.788,13.467,5.597
				c4.362,2.08,8.727,4.071,12.949,5.997c19.616,8.943,38.142,17.393,49.86,32.078C566.676,263.365,571.039,290.301,564.714,325.624
				z"/>
			<linearGradient id="SVGID_5_" gradientUnits="userSpaceOnUse" x1="348.248" y1="510.7979" x2="237.4456" y2="-7.2394">
				<stop  offset="0" style="stop-color:#D3FFCF"/>
				<stop  offset="1" style="stop-color:#1DFFF2"/>
			</linearGradient>
			<path fill="url(#SVGID_5_)" d="M536.854,181.879c-5.007-2.271-10.184-4.621-15.376-7.077c-4.529-1.852-9.001-3.714-13.738-5.688
				c-39.504-16.458-84.278-35.109-138.791-35.109c-26.499,0-52.773,4.259-80.308,13.015c-30.093,7.914-61.156,20.471-88.562,31.548
				c-17.565,7.1-34.157,13.808-48.828,18.665c-35.872,13.031-61.211,15.593-79.711,17.464c-1.453,0.146-2.867,0.289-4.246,0.433
				c-19.126,2.119-31.483,4.345-43.99,22.623c-10.843,15.59-23.576,47.781-27.576,84.56c-3.965,34.218,2.738,63.127,19.919,85.924
				c12.09,16.634,29.448,29.888,47.828,43.919c6.504,4.963,13.228,10.097,19.997,15.58c6.74,4.693,13.393,9.609,20.438,14.813
				c21.244,15.699,43.207,31.93,69.017,42.871c22.271,9.675,46.019,14.578,70.581,14.578c16.971,0,34.791-2.333,52.957-6.934
				c32.686-6.76,66.808-20.246,96.914-32.146c13.779-5.446,26.794-10.591,38.723-14.734c26.364-10.006,47.796-15.342,65.02-19.629
				c8.655-2.154,16.131-4.018,23.156-6.152c21.643-6.642,37.39-15.527,53.841-41.286c17.451-27.073,32.848-68.894,39.23-106.54
				c7.148-40.604,1.633-71.768-16.39-92.618C582.762,202.714,560.462,192.594,536.854,181.879z M612.816,312.481
				c-6.37,37.584-21.738,79.325-39.153,106.342c-16.362,25.62-32.022,34.455-53.545,41.063c-7.01,2.132-14.479,3.989-23.129,6.143
				c-17.234,4.292-38.687,9.632-65.073,19.646c-11.931,4.146-24.952,9.291-38.736,14.74c-30.085,11.893-64.185,25.371-96.836,32.123
				c-18.134,4.593-35.911,6.92-52.837,6.92c-24.487,0-48.163-4.889-70.368-14.534c-25.751-10.918-47.691-27.13-68.908-42.81
				c-7.048-5.206-13.702-10.125-20.435-14.809c-6.761-5.477-13.486-10.613-19.994-15.58c-18.348-14.006-35.676-27.236-47.722-43.811
				c-17.098-22.686-23.765-51.466-19.817-85.543c3.992-36.684,16.68-68.777,27.484-84.313
				c12.375-18.085,24.633-20.291,43.604-22.393c1.377-0.144,2.792-0.286,4.244-0.432c18.529-1.874,43.904-4.439,79.832-17.49
				c14.681-4.862,31.28-11.572,48.855-18.676c27.389-11.073,58.435-23.62,88.509-31.53c27.495-8.742,53.716-12.992,80.157-12.992
				c54.407,0,99.128,18.631,138.584,35.066c4.736,1.974,9.21,3.839,13.729,5.685c5.181,2.451,10.359,4.801,15.367,7.074
				c23.552,10.688,45.795,20.782,59.916,37.933C614.46,241.03,619.935,272.043,612.816,312.481z"/>
			<linearGradient id="SVGID_6_" gradientUnits="userSpaceOnUse" x1="350.8057" y1="510.251" x2="240.0032" y2="-7.7865">
				<stop  offset="0" style="stop-color:#D3FFCF"/>
				<stop  offset="1" style="stop-color:#1DFFF2"/>
			</linearGradient>
			<path fill="url(#SVGID_6_)" d="M557.675,134.646c-5.682-2.595-11.553-5.276-17.435-8.089c-6.26-2.555-12.449-5.155-19-7.908
				c-43.222-18.167-92.211-38.756-151.247-38.756c-28.261,0-56.241,4.536-85.526,13.865c-33.692,8.861-68.373,23.191-98.973,35.835
				c-18.345,7.58-35.671,14.739-51.021,20.027c-35.718,13.485-61.965,17.444-81.133,20.334c-3.512,0.529-6.829,1.03-9.979,1.552
				c-19.907,3.402-34.047,7.397-48.621,30.982c-12.485,20.01-27.271,59.52-32.17,102.685c-4.917,40.629,2.311,74.588,21.48,100.933
				c13.295,18.972,32.359,33.826,52.544,49.553c7.457,5.81,15.168,11.817,22.906,18.268c8.164,5.823,16.199,11.979,24.707,18.497
				c22.641,17.346,46.051,35.282,73.258,47.715c25.332,11.842,52.278,17.846,80.093,17.846c17.45,0,35.731-2.35,54.322-6.979
				c36.611-7.346,74.781-22.76,108.456-36.359c13.988-5.648,27.201-10.984,39.368-15.378c25.654-10.105,46.289-16.01,64.493-21.218
				c11.872-3.397,22.125-6.33,31.519-9.811c22.839-8.515,40.862-20.313,60.117-52.771c20.188-33.834,38.186-84.266,45.849-128.479
				c8.681-48.204,2.897-84.908-17.184-109.091C608.77,157.983,583.95,146.647,557.675,134.646z M640.976,286.864
				c-7.651,44.136-25.612,94.471-45.761,128.237c-19.148,32.277-37.058,44.006-59.749,52.463
				c-9.368,3.473-19.608,6.402-31.465,9.795c-18.221,5.213-38.872,11.122-64.55,21.235c-12.17,4.396-25.389,9.733-39.385,15.384
				c-33.646,13.589-71.783,28.99-108.342,36.325c-18.552,4.62-36.775,6.96-54.166,6.96c-27.707,0-54.551-5.98-79.792-17.777
				c-27.135-12.4-50.512-30.313-73.122-47.635c-8.511-6.521-16.551-12.68-24.704-18.494c-7.727-6.442-15.441-12.452-22.902-18.266
				c-20.143-15.692-39.165-30.514-52.403-49.403c-19.062-26.197-26.245-59.986-21.348-100.431
				c4.882-43.056,19.622-82.448,32.065-102.39c14.414-23.328,28.416-27.284,48.127-30.651c3.145-0.521,6.459-1.021,9.97-1.549
				c19.197-2.896,45.489-6.86,81.268-20.371c15.361-5.291,32.698-12.453,51.052-20.037c30.579-12.635,65.237-26.955,98.897-35.811
				c29.231-9.311,57.142-13.836,85.327-13.836c58.891,0,107.81,20.56,150.969,38.698c6.553,2.755,12.743,5.356,18.986,7.903
				c5.87,2.806,11.746,5.49,17.428,8.086c26.195,11.964,50.938,23.265,66.565,43.053
				C643.886,202.369,649.617,238.876,640.976,286.864z"/>
			<linearGradient id="SVGID_7_" gradientUnits="userSpaceOnUse" x1="347.459" y1="510.9668" x2="236.6565" y2="-7.0707">
				<stop  offset="0" style="stop-color:#D3FFCF"/>
				<stop  offset="1" style="stop-color:#1DFFF2"/>
			</linearGradient>
			<path fill="url(#SVGID_7_)" d="M664.79,128.732c-18.238-23.094-46.978-36.219-77.406-50.116
				c-6.569-3.001-13.361-6.104-20.182-9.363c-7.24-2.954-14.4-5.963-21.98-9.15c-50.018-21.021-106.708-44.851-175.055-44.851
				c-32.72,0-65.119,5.254-99.011,16.051c-38.999,10.256-79.135,26.842-114.546,41.475c-21.204,8.763-41.233,17.039-58.981,23.153
				c-41.284,15.588-71.632,20.163-93.79,23.503c-4.062,0.612-7.897,1.19-11.544,1.794c-23.104,3.948-39.519,8.585-56.448,35.978
				c-14.455,23.168-31.58,68.92-37.252,118.898c-5.697,47.077,2.683,86.432,24.9,116.957c15.402,21.984,37.475,39.18,60.841,57.386
				c8.624,6.719,17.54,13.665,26.503,21.138c9.434,6.729,18.72,13.844,28.551,21.375c26.208,20.079,53.309,40.842,84.814,55.242
				c29.34,13.713,60.554,20.667,92.77,20.667c20.208,0,41.38-2.721,62.895-8.078c42.38-8.501,86.549-26.339,125.519-42.077
				c16.175-6.532,31.451-12.7,45.525-17.781c29.666-11.687,53.534-18.514,74.591-24.539c13.731-3.928,25.588-7.32,36.463-11.348
				c26.476-9.875,47.37-23.553,69.688-61.172c23.374-39.172,44.205-97.547,53.072-148.718
				C694.783,199.309,688.074,156.77,664.79,128.732z M683.308,254.905c-8.84,51.016-29.6,109.199-52.892,148.231
				c-22.103,37.257-42.77,50.795-68.953,60.561c-10.82,4.008-22.653,7.393-36.356,11.313c-21.086,6.032-44.99,12.869-74.702,24.573
				c-14.08,5.084-29.37,11.258-45.556,17.794c-38.911,15.714-83.016,33.526-125.294,42.01c-21.436,5.335-42.49,8.042-62.581,8.042
				c-32.003,0-63.012-6.908-92.168-20.534c-31.362-14.335-58.396-35.048-84.541-55.078c-9.84-7.54-19.137-14.662-28.547-21.373
				c-8.939-7.453-17.865-14.407-26.497-21.134c-23.279-18.137-45.269-35.268-60.555-57.087
				c-22.005-30.231-30.295-69.241-24.643-115.953c5.647-49.761,22.675-95.272,37.046-118.307
				c16.615-26.881,32.75-31.435,55.465-35.318c3.633-0.6,7.463-1.178,11.521-1.79c22.222-3.349,52.655-7.937,94.063-23.571
				c17.769-6.122,37.815-14.406,59.041-23.177c35.369-14.616,75.458-31.183,114.396-41.424
				c33.785-10.761,66.041-15.992,98.611-15.992c68.056,0,124.604,23.768,174.498,44.738c7.582,3.188,14.745,6.198,21.955,9.14
				c6.793,3.248,13.59,6.352,20.166,9.356c30.265,13.822,58.852,26.876,76.885,49.712
				C686.683,157.348,693.29,199.491,683.308,254.905z"/>
		</g>
		<path fill="#41FFEF" d="M14.94,126.07c-5.251,9.909-17.541,13.686-27.45,8.432c-9.908-5.252-13.681-17.541-8.429-27.45
			c5.249-9.906,17.539-13.682,27.448-8.431C16.416,103.872,20.192,116.162,14.94,126.07"/>
		<path fill="#51FFEA" d="M68.716,165.698c1.375-2.595,4.593-3.584,7.188-2.208c2.596,1.374,3.584,4.596,2.208,7.189
			c-1.376,2.595-4.593,3.584-7.188,2.207C68.327,171.511,67.338,168.295,68.716,165.698"/>
		<linearGradient id="SVGID_8_" gradientUnits="userSpaceOnUse" x1="10.6953" y1="297.5078" x2="-4.6531" y2="254.3408">
			<stop  offset="0" style="stop-color:#D3FFCF"/>
			<stop  offset="1" style="stop-color:#1DFFF2"/>
		</linearGradient>
		<path fill="url(#SVGID_8_)" d="M-5.538,273.816c2.816-5.313,9.409-7.34,14.726-4.521c5.315,2.817,7.339,9.409,4.522,14.726
			c-2.817,5.315-9.409,7.341-14.725,4.522C-6.33,285.727-8.355,279.134-5.538,273.816"/>
		<linearGradient id="SVGID_9_" gradientUnits="userSpaceOnUse" x1="92.0195" y1="268.6895" x2="77.1487" y2="234.6313">
			<stop  offset="0" style="stop-color:#D3FFCF"/>
			<stop  offset="1" style="stop-color:#1DFFF2"/>
		</linearGradient>
		<path fill="url(#SVGID_9_)" d="M79.579,252.178c1.99-3.758,6.654-5.189,10.412-3.197c3.76,1.991,5.19,6.653,3.199,10.412
			c-1.993,3.759-6.655,5.19-10.413,3.197C79.018,260.6,77.587,255.938,79.579,252.178"/>
		
			<rect x="-79.551" y="-41.175" transform="matrix(-0.8836 -0.4683 0.4683 -0.8836 409.8419 653.7551)" fill="none" width="731.49" height="634.205"/>
	</g>
</g>
</svg>
